<svg width="330" height="168" viewBox="0 0 330 168" fill="none" xmlns="http://www.w3.org/2000/svg">
<path d="M316.28 135.044L12.2598 143.384V82.5546H319.206L316.28 135.044Z" fill="#263238"/>
<path opacity="0.5" d="M316.28 135.044L12.2598 143.384V82.5546H319.206L316.28 135.044Z" fill="black"/>
<path d="M0.568359 98.1646V129.011C0.569721 132.228 1.45194 135.36 3.08571 137.948C4.71949 140.536 7.01891 142.444 9.64699 143.391L11.7922 144.154C13.1169 144.634 14.4994 144.86 15.8859 144.822L30.0847 144.434C28.5731 138.253 28.2926 131.749 29.2646 125.421C30.2365 119.093 32.4352 113.11 35.6916 107.931C38.9481 102.751 43.1758 98.5142 48.0502 95.544C52.9246 92.5738 58.316 90.9497 63.8104 90.7964C69.3049 90.6432 74.7563 91.9648 79.7462 94.6598C84.7361 97.3549 89.1316 101.352 92.5954 106.343C96.0592 111.335 98.4991 117.189 99.7278 123.455C100.956 129.722 100.941 136.234 99.6834 142.493L244.13 138.473C243.894 136.501 243.781 134.511 243.792 132.52C243.689 126.904 244.548 121.321 246.319 116.1C248.09 110.879 250.737 106.126 254.103 102.12C257.469 98.1146 261.487 94.938 265.919 92.7776C270.352 90.6173 275.109 89.5169 279.911 89.5414C284.712 89.5659 289.461 90.7147 293.877 92.9202C298.294 95.1256 302.287 98.3431 305.624 102.383C308.96 106.423 311.571 111.203 313.303 116.442C315.035 121.681 315.853 127.272 315.708 132.886C315.708 133.706 315.646 134.511 315.646 135.324C315.837 135.23 316.034 135.144 316.224 135.036L321.142 132.455C323.525 131.191 325.546 129.149 326.963 126.576C328.38 124.003 329.133 121.006 329.132 117.945V55.1308C329.134 52.2314 328.457 49.3869 327.175 46.9053C325.893 44.4237 324.055 42.3996 321.861 41.0522L284.846 18.2087C284.511 18.0006 284.236 17.6838 284.053 17.2966C283.869 16.9094 283.785 16.4684 283.811 16.0267C283.837 15.585 283.972 15.1616 284.199 14.8075C284.426 14.4534 284.736 14.1838 285.091 14.0311L289.634 12.1257C289.862 12.037 290.057 11.8599 290.188 11.6239C290.318 11.3878 290.376 11.1067 290.352 10.827C290.327 10.5473 290.222 10.2856 290.054 10.0852C289.885 9.88468 289.663 9.75735 289.425 9.72417C271.784 6.84805 203.156 -3.64975 167.106 1.50568C125.493 7.46642 85.6136 49.6805 85.6136 49.6805C54.9602 48.3647 26.3598 60.8471 14.0541 67.0954C12.0895 68.0981 10.3259 69.5706 8.8767 71.4182C7.42751 73.2657 6.32477 75.4475 5.63936 77.8233L1.4289 92.4196C0.876608 94.267 0.585932 96.2076 0.568359 98.1646Z" fill="#407BFF"/>
<path d="M244.198 138.502C243.989 136.65 243.884 134.784 243.884 132.915C243.884 131.959 243.884 131.017 243.964 130.082L217.847 117.564C216.318 116.837 214.669 116.523 213.022 116.644L122.15 123.618C120.664 123.729 119.214 124.196 117.89 124.992L100.624 135.382C100.501 137.781 100.207 140.165 99.7451 142.507L244.198 138.502Z" fill="#263238"/>
<path d="M329.236 117.959V116.356L314.484 121.648C315.345 125.314 315.781 129.099 315.781 132.901C315.781 133.721 315.72 134.526 315.72 135.338C315.91 135.245 316.107 135.159 316.298 135.051L321.252 132.469C323.634 131.204 325.654 129.162 327.07 126.589C328.486 124.016 329.238 121.02 329.236 117.959Z" fill="#263238"/>
<path d="M4.76074 140.084C6.16874 141.605 7.8485 142.739 9.67808 143.406L11.8294 144.168C13.152 144.648 14.5325 144.874 15.9169 144.837L30.1157 144.449C29.6028 142.348 29.2328 140.204 29.0093 138.035L4.76074 140.084Z" fill="#263238"/>
<path d="M279.885 86.8688C274.306 86.8664 268.791 88.2521 263.705 90.9338C258.619 93.6156 254.079 97.5321 250.386 102.423C246.693 107.315 243.931 113.069 242.285 119.304C240.638 125.539 240.144 132.113 240.835 138.588L244.277 138.502C244.042 136.53 243.929 134.54 243.939 132.549C243.837 126.933 244.696 121.35 246.467 116.129C248.238 110.908 250.884 106.155 254.251 102.149C257.617 98.1434 261.635 94.9668 266.067 92.8065C270.499 90.6461 275.257 89.5458 280.058 89.5703C284.86 89.5948 289.609 90.7436 294.025 92.949C298.441 95.1545 302.435 98.372 305.771 102.412C309.107 106.451 311.719 111.232 313.45 116.471C315.182 121.709 316 127.301 315.855 132.915C315.855 133.735 315.8 134.54 315.8 135.353C315.991 135.259 316.187 135.173 316.378 135.065L319.218 133.555V132.915C319.203 120.716 315.054 109.021 307.679 100.395C300.305 91.7684 290.308 86.9147 279.879 86.8975L279.885 86.8688Z" fill="#263238"/>
<path d="M64.7147 86.8687C58.6958 86.8594 52.7554 88.4659 47.3507 91.5644C41.946 94.6629 37.2212 99.1709 33.5399 104.741C29.8587 110.312 27.3192 116.796 26.117 123.695C24.9147 130.594 25.0818 137.723 26.6053 144.535L30.0967 144.448C28.5872 138.268 28.3084 131.765 29.2816 125.438C30.2547 119.112 32.454 113.13 35.7107 107.953C38.9673 102.775 43.1947 98.5396 48.0683 95.5705C52.942 92.6013 58.3324 90.9779 63.8259 90.8246C69.3193 90.6714 74.7698 91.9925 79.7589 94.6866C84.748 97.3806 89.1431 101.376 92.607 106.366C96.0709 111.356 98.5113 117.208 99.7411 123.473C100.971 129.738 100.957 136.249 99.7015 142.507L103.187 142.414C104.4 135.709 104.317 128.772 102.945 122.109C101.573 115.446 98.9458 109.226 95.2559 103.903C91.566 98.5798 86.9062 94.288 81.617 91.3409C76.3277 88.3938 70.5426 86.8658 64.684 86.8687H64.7147Z" fill="#263238"/>
<path d="M98.9581 51.4998C98.5268 51.9399 98.2309 52.5336 98.1161 53.1895C97.9561 53.9194 98.0351 54.6928 98.3376 55.3579C98.6401 56.0231 99.1443 56.532 99.7511 56.7847L114.767 61.71C116.091 62.1482 117.477 62.2704 118.843 62.0695L230.202 45.9273C232.994 45.472 235.542 43.8191 237.35 41.2896L251.955 21.3797C252.458 20.6969 252.765 19.847 252.834 18.9494C253.03 16.6845 251.82 14.6352 250.117 14.3836C223.453 10.2492 189.738 6.47427 168.452 9.53014C140.553 13.5136 112.456 38.0468 98.9581 51.4998Z" fill="#407BFF"/>
<path opacity="0.8" d="M99.4616 51.4998C99.0283 51.9392 98.7303 52.5328 98.6134 53.1895C98.4552 53.9202 98.5357 54.6937 98.8393 55.3586C99.1428 56.0235 99.6475 56.532 100.255 56.7847L115.271 61.71C116.595 62.1482 117.981 62.2704 119.346 62.0695L228.21 53.3405C230.92 52.9379 235.106 47.1065 238.044 42.3825L252.434 21.3797C252.93 20.6924 253.237 19.8449 253.313 18.9494C253.509 16.6845 252.292 14.6352 250.596 14.3836C223.932 10.2492 190.217 6.47427 168.925 9.53014C141.05 13.5136 112.96 38.0468 99.4616 51.4998Z" fill="white"/>
<g opacity="0.3">
<path d="M172.202 63.8886C172.032 63.8171 171.876 63.7071 171.743 63.565C171.61 63.4228 171.502 63.2513 171.425 63.0603C171.349 62.8693 171.305 62.6624 171.297 62.4517C171.289 62.2409 171.317 62.0304 171.378 61.8321C171.532 61.3267 171.811 60.8866 172.18 60.5688C172.549 60.2509 172.992 60.0698 173.45 60.0489L186.702 59.3946C186.882 59.3858 187.061 59.4175 187.231 59.4881C187.402 59.5597 187.559 59.6701 187.694 59.8129C187.829 59.9558 187.938 60.1284 188.016 60.3207C188.093 60.5131 188.138 60.7214 188.147 60.9339C188.155 61.1463 188.128 61.3587 188.067 61.5589C187.908 62.0633 187.626 62.5018 187.255 62.8191C186.884 63.1363 186.442 63.3183 185.983 63.3421L172.731 63.982C172.551 63.9903 172.372 63.9586 172.202 63.8886Z" fill="black"/>
</g>
<path d="M270.757 19.4742C270.478 19.7636 270.251 20.1147 270.088 20.5072C269.925 20.8997 269.83 21.3259 269.809 21.7615C269.787 22.197 269.839 22.6333 269.962 23.0453C270.084 23.4573 270.275 23.8368 270.524 24.1622L273.665 28.16C274.026 28.609 274.485 28.9346 274.992 29.102L313.489 41.5915C314.159 41.7997 314.849 41.9084 315.542 41.9151H323.188C322.793 41.5997 322.383 41.3116 321.959 41.0522L284.846 18.1799C284.623 18.0514 284.424 17.8727 284.261 17.6541C284.097 17.4355 283.972 17.1814 283.893 16.9062C283.813 16.631 283.781 16.3401 283.798 16.0504C283.815 15.7606 283.881 15.4776 283.991 15.2175L271.938 18.748C271.501 18.8783 271.097 19.1271 270.757 19.4742Z" fill="#407BFF"/>
<path d="M31.0315 72.9699L17.8961 71.2946L10.3541 74.8897C9.5696 75.2655 8.87161 75.8518 8.3164 76.6011C7.7612 77.3505 7.36433 78.2421 7.15783 79.2039C6.9105 80.3278 7.04952 81.5203 7.54508 82.5258L7.6803 82.7918C8.09139 83.6238 8.70494 84.2938 9.44276 84.7164C10.1806 85.139 11.0093 85.295 11.8232 85.1646L19.3958 83.9423C20.1343 83.8203 20.8343 83.4814 21.4304 82.9572L30.171 75.2276L31.0315 72.9699Z" fill="white"/>
<path d="M85.6016 49.6878L87.6914 50.4068C88.4917 50.6723 89.3355 50.7043 90.1488 50.5C90.9621 50.2957 91.7202 49.8613 92.3567 49.2348C104.533 37.1839 125.696 18.7048 148.537 10.0909C148.638 10.05 148.723 9.96838 148.777 9.8608C148.805 9.8034 148.823 9.74 148.83 9.67432C148.837 9.60864 148.833 9.54202 148.817 9.47837C148.802 9.41472 148.775 9.35533 148.74 9.3037C148.705 9.25207 148.661 9.20923 148.611 9.17773L145.771 7.47363C112.825 20.8188 85.6016 49.6878 85.6016 49.6878Z" fill="#407BFF"/>
<path opacity="0.8" d="M85.6016 49.6878L87.6914 50.4068C88.4917 50.6723 89.3355 50.7043 90.1488 50.5C90.9621 50.2957 91.7202 49.8613 92.3567 49.2348C104.533 37.1839 125.696 18.7048 148.537 10.0909C148.638 10.05 148.723 9.96838 148.777 9.8608C148.805 9.8034 148.823 9.74 148.83 9.67432C148.837 9.60864 148.833 9.54202 148.817 9.47837C148.802 9.41472 148.775 9.35533 148.74 9.3037C148.705 9.25207 148.661 9.20923 148.611 9.17773L145.771 7.47363C112.825 20.8188 85.6016 49.6878 85.6016 49.6878Z" fill="white"/>
<path opacity="0.2" d="M210.434 65.9523L99.7324 75.2277L101.816 91.1973C102.456 96.0857 104.006 100.75 106.359 104.859L115.609 121.037L210.096 106.088L254.764 65.9523H210.434Z" fill="white"/>
<path d="M279.849 167.953C296.402 167.953 309.82 152.257 309.82 132.894C309.82 113.531 296.402 97.8339 279.849 97.8339C263.296 97.8339 249.878 113.531 249.878 132.894C249.878 152.257 263.296 167.953 279.849 167.953Z" fill="#263238"/>
<path opacity="0.4" d="M279.848 154.385C289.995 154.385 298.22 144.763 298.22 132.894C298.22 121.024 289.995 111.402 279.848 111.402C269.701 111.402 261.476 121.024 261.476 132.894C261.476 144.763 269.701 154.385 279.848 154.385Z" fill="white"/>
<g opacity="0.3">
<path d="M279.854 113.566H279.848C279.037 113.566 278.379 114.336 278.379 115.285V126.3C278.379 127.249 279.037 128.019 279.848 128.019H279.854C280.665 128.019 281.323 127.249 281.323 126.3V115.285C281.323 114.336 280.665 113.566 279.854 113.566Z" fill="white"/>
</g>
<g opacity="0.3">
<path d="M279.854 137.783H279.848C279.037 137.783 278.379 138.552 278.379 139.502V150.517C278.379 151.466 279.037 152.236 279.848 152.236H279.854C280.665 152.236 281.323 151.466 281.323 150.517V139.502C281.323 138.552 280.665 137.783 279.854 137.783Z" fill="white"/>
</g>
<g opacity="0.3">
<path d="M285.46 131.096C285.292 131.208 285.107 131.279 284.916 131.307C284.724 131.335 284.53 131.319 284.344 131.258C284.158 131.198 283.983 131.096 283.831 130.957C283.679 130.818 283.552 130.645 283.456 130.449C283.263 130.054 283.211 129.586 283.312 129.146C283.414 128.707 283.66 128.332 283.997 128.105L292.148 122.568C292.316 122.455 292.501 122.381 292.693 122.352C292.885 122.322 293.081 122.337 293.268 122.396C293.455 122.455 293.631 122.556 293.785 122.694C293.938 122.832 294.067 123.005 294.164 123.201C294.356 123.596 294.407 124.064 294.306 124.503C294.204 124.942 293.959 125.317 293.623 125.545L285.46 131.082V131.096Z" fill="white"/>
</g>
<g opacity="0.3">
<path d="M267.536 143.154C267.199 143.381 266.798 143.441 266.422 143.323C266.047 143.204 265.726 142.916 265.532 142.521C265.437 142.326 265.375 142.111 265.35 141.888C265.325 141.665 265.339 141.439 265.389 141.222C265.439 141.005 265.525 140.802 265.643 140.624C265.76 140.446 265.906 140.296 266.073 140.185L274.224 134.648C274.561 134.421 274.962 134.359 275.339 134.476C275.715 134.593 276.037 134.88 276.234 135.274C276.428 135.67 276.481 136.14 276.381 136.582C276.281 137.023 276.036 137.401 275.699 137.632L267.542 143.169L267.536 143.154Z" fill="white"/>
</g>
<g opacity="0.3">
<path d="M292.154 143.197L284.003 137.661C283.835 137.548 283.688 137.397 283.57 137.217C283.452 137.037 283.365 136.832 283.315 136.613C283.265 136.394 283.252 136.165 283.277 135.94C283.303 135.716 283.366 135.499 283.462 135.302C283.66 134.908 283.983 134.621 284.361 134.506C284.739 134.39 285.141 134.454 285.479 134.684L293.629 140.221C293.965 140.449 294.21 140.824 294.312 141.263C294.413 141.701 294.362 142.169 294.17 142.565C294.073 142.761 293.944 142.933 293.791 143.072C293.637 143.21 293.461 143.311 293.274 143.37C293.087 143.429 292.891 143.444 292.699 143.414C292.507 143.384 292.322 143.311 292.154 143.197Z" fill="white"/>
</g>
<g opacity="0.3">
<path d="M276.239 130.456C276.044 130.849 275.724 131.136 275.348 131.253C274.972 131.37 274.572 131.309 274.236 131.082L266.073 125.56C265.737 125.331 265.492 124.956 265.391 124.517C265.291 124.077 265.344 123.609 265.538 123.216C265.733 122.822 266.054 122.536 266.43 122.418C266.805 122.301 267.205 122.363 267.542 122.59L275.699 128.126C276.035 128.355 276.28 128.73 276.38 129.169C276.48 129.609 276.427 130.077 276.233 130.47L276.239 130.456Z" fill="white"/>
</g>
<path d="M277.383 132.886C277.383 132.124 277.642 131.392 278.103 130.853C278.564 130.313 279.189 130.01 279.841 130.01C280.328 130.01 280.803 130.179 281.207 130.495C281.612 130.811 281.927 131.26 282.113 131.786C282.299 132.311 282.348 132.89 282.253 133.448C282.158 134.006 281.924 134.518 281.58 134.92C281.236 135.322 280.798 135.596 280.321 135.707C279.844 135.818 279.35 135.761 278.901 135.544C278.451 135.326 278.067 134.957 277.797 134.484C277.527 134.011 277.383 133.455 277.383 132.886Z" fill="#263238"/>
<path d="M64.7143 167.961C81.2669 167.961 94.6855 152.264 94.6855 132.901C94.6855 113.538 81.2669 97.8411 64.7143 97.8411C48.1617 97.8411 34.7432 113.538 34.7432 132.901C34.7432 152.264 48.1617 167.961 64.7143 167.961Z" fill="#263238"/>
<path opacity="0.4" d="M64.7142 154.393C74.861 154.393 83.0866 144.77 83.0866 132.901C83.0866 121.031 74.861 111.409 64.7142 111.409C54.5674 111.409 46.3418 121.031 46.3418 132.901C46.3418 144.77 54.5674 154.393 64.7142 154.393Z" fill="white"/>
<g opacity="0.3">
<path d="M64.7145 113.566H64.7083C63.897 113.566 63.2393 114.336 63.2393 115.285V126.3C63.2393 127.249 63.897 128.019 64.7083 128.019H64.7145C65.5258 128.019 66.1835 127.249 66.1835 126.3V115.285C66.1835 114.336 65.5258 113.566 64.7145 113.566Z" fill="white"/>
</g>
<g opacity="0.3">
<path d="M64.7145 137.783H64.7083C63.897 137.783 63.2393 138.552 63.2393 139.502V150.517C63.2393 151.466 63.897 152.236 64.7083 152.236H64.7145C65.5258 152.236 66.1835 151.466 66.1835 150.517V139.502C66.1835 138.552 65.5258 137.783 64.7145 137.783Z" fill="white"/>
</g>
<g opacity="0.3">
<path d="M70.3264 131.096C70.16 131.207 69.9763 131.279 69.7861 131.306C69.596 131.334 69.403 131.317 69.2184 131.257C69.0338 131.197 68.8612 131.094 68.7106 130.956C68.56 130.817 68.4344 130.645 68.341 130.449C68.243 130.255 68.1789 130.04 68.1525 129.817C68.126 129.593 68.1377 129.366 68.1869 129.148C68.236 128.93 68.3217 128.725 68.4389 128.546C68.5561 128.367 68.7025 128.217 68.8697 128.105L77.0263 122.568C77.1932 122.455 77.3776 122.382 77.5689 122.353C77.7601 122.323 77.9545 122.338 78.1407 122.397C78.327 122.456 78.5014 122.557 78.6541 122.695C78.8067 122.833 78.9345 123.005 79.0301 123.201C79.1268 123.396 79.1895 123.612 79.2146 123.836C79.2398 124.06 79.2268 124.287 79.1765 124.505C79.1263 124.723 79.0397 124.927 78.9217 125.105C78.8037 125.284 78.6567 125.433 78.4892 125.545L70.3264 131.082V131.096Z" fill="white"/>
</g>
<g opacity="0.3">
<path d="M50.3926 142.521C50.2969 142.327 50.2349 142.111 50.2103 141.888C50.1857 141.665 50.1989 141.439 50.2491 141.222C50.2993 141.005 50.3856 140.802 50.5031 140.624C50.6205 140.446 50.7668 140.296 50.9335 140.185L59.084 134.648C59.4215 134.418 59.8234 134.354 60.2013 134.47C60.5793 134.585 60.9026 134.872 61.1001 135.266C61.197 135.463 61.26 135.68 61.2853 135.904C61.3106 136.129 61.2977 136.358 61.2475 136.577C61.1973 136.796 61.1106 137.001 60.9925 137.181C60.8744 137.361 60.7271 137.512 60.5592 137.625L52.4087 143.161C52.0685 143.388 51.6655 143.448 51.2878 143.328C50.91 143.208 50.5882 142.918 50.3926 142.521Z" fill="white"/>
</g>
<g opacity="0.3">
<path d="M79.0247 142.572C78.8294 142.965 78.5089 143.252 78.1333 143.369C77.7577 143.486 77.3577 143.424 77.0209 143.197L68.8643 137.661C68.5271 137.43 68.2821 137.052 68.183 136.609C68.0839 136.167 68.1388 135.697 68.3357 135.302C68.4317 135.107 68.56 134.936 68.713 134.798C68.866 134.661 69.0408 134.561 69.2272 134.504C69.4136 134.446 69.6079 134.432 69.7988 134.463C69.9897 134.494 70.1735 134.569 70.3395 134.684L78.49 140.221C78.8261 140.449 79.0711 140.824 79.1713 141.263C79.2716 141.703 79.2189 142.171 79.0247 142.565V142.572Z" fill="white"/>
</g>
<g opacity="0.3">
<path d="M61.106 130.471C60.9086 130.863 60.586 131.148 60.2091 131.263C59.8322 131.377 59.4319 131.312 59.096 131.082L50.9332 125.56C50.7657 125.448 50.6187 125.298 50.5007 125.12C50.3828 124.941 50.2961 124.737 50.2459 124.519C50.1956 124.301 50.1826 124.074 50.2078 123.85C50.2329 123.627 50.2956 123.411 50.3923 123.216C50.5889 122.82 50.9112 122.532 51.2889 122.413C51.6666 122.295 52.069 122.356 52.4084 122.583L60.5589 128.119C60.895 128.348 61.14 128.723 61.2403 129.162C61.3405 129.601 61.2878 130.069 61.0937 130.463L61.106 130.471Z" fill="white"/>
</g>
<path d="M64.7145 130.01C65.2008 130.01 65.6762 130.179 66.0805 130.495C66.4848 130.811 66.8 131.26 66.986 131.786C67.1721 132.311 67.2208 132.89 67.126 133.448C67.0311 134.006 66.7969 134.518 66.4531 134.92C66.1092 135.322 65.6711 135.596 65.1942 135.707C64.7173 135.818 64.2229 135.761 63.7736 135.544C63.3244 135.326 62.9404 134.957 62.6702 134.484C62.4001 134.011 62.2559 133.455 62.2559 132.886C62.2559 132.124 62.5149 131.392 62.976 130.853C63.4371 130.313 64.0624 130.01 64.7145 130.01Z" fill="#263238"/>
<path opacity="0.3" d="M326.095 66.7648C326.572 66.5864 326.969 66.1942 327.2 65.674C327.43 65.1538 327.475 64.548 327.324 63.9893C326.98 56.6121 325.64 50.0402 321.792 45.5175C321.668 45.0356 321.406 44.6182 321.05 44.3344C320.695 44.0506 320.267 43.9175 319.838 43.9572L296.985 46.4666C296.635 46.5048 296.301 46.6561 296.021 46.9034C295.74 47.1507 295.524 47.4844 295.397 47.8672C295.269 48.2499 295.235 48.6666 295.299 49.0707C295.362 49.4747 295.52 49.8502 295.755 50.1552L302.295 58.4025C302.523 58.689 302.811 58.8998 303.131 59.0136L324.995 66.7648C325.354 66.8888 325.736 66.8888 326.095 66.7648Z" fill="black"/>
<path d="M98.1161 53.1535C97.9561 53.8833 98.0351 54.6568 98.3376 55.3219C98.6401 55.9871 99.1443 56.496 99.7511 56.7486L114.774 61.674C116.129 62.1587 117.531 62.439 118.947 62.508L123.674 62.1413L119.211 33.9554C108.916 41.8648 108.209 42.2315 98.9581 51.4422C98.5233 51.8879 98.2271 52.4898 98.1161 53.1535Z" fill="#263238"/>
<path d="M195.946 8.62415L186.499 56.7487L198.842 55.7061L204.49 9.07714C201.601 8.87581 198.753 8.72481 195.946 8.62415Z" fill="#263238"/>
<path d="M235.106 46.711L252.44 21.3796C252.951 20.6867 253.265 19.8246 253.337 18.9134C253.528 16.6484 252.311 14.5992 250.614 14.3619C247.062 13.7939 243.281 13.2546 239.501 12.7225" fill="#263238"/>
<path d="M111.773 58.0501C111.059 58.0605 110.35 57.9062 109.688 57.5958C109.025 57.2855 108.421 56.8252 107.911 56.2415C107.4 55.6577 106.993 54.9619 106.713 54.1939C106.433 53.4259 106.285 52.6008 106.278 51.7658C106.264 50.3169 106.673 48.9058 107.437 47.7657C108.201 46.6256 109.276 45.8248 110.482 45.4959L117.723 43.5114L119.567 57.705L111.92 58.0429L111.773 58.0501Z" fill="#407BFF"/>
<path opacity="0.3" d="M117.441 57.7984L119.562 57.705L117.724 43.5114L115.652 44.0866L117.441 57.7984Z" fill="black"/>
<path opacity="0.6" d="M189.172 118.657H189.141C189.121 118.652 189.103 118.642 189.086 118.629C189.069 118.615 189.055 118.598 189.044 118.578C189.034 118.558 189.026 118.535 189.023 118.512C189.019 118.488 189.02 118.464 189.024 118.441C189.104 118.003 197.015 74.5806 198.029 68.6414C198.417 66.3765 198.558 62.0264 198.441 55.6989C198.441 55.6512 198.457 55.6055 198.486 55.5718C198.515 55.5381 198.554 55.5192 198.595 55.5192C198.634 55.5191 198.673 55.5371 198.701 55.5693C198.73 55.6014 198.747 55.6453 198.748 55.6917C198.865 62.0264 198.748 66.3981 198.33 68.6918C197.316 74.6166 189.405 118.06 189.326 118.499C189.32 118.542 189.301 118.582 189.273 118.61C189.245 118.639 189.209 118.656 189.172 118.657Z" fill="black"/>
<path opacity="0.6" d="M117.877 125.171C117.852 125.171 117.827 125.164 117.805 125.15C117.782 125.136 117.763 125.116 117.748 125.092C117.65 124.912 107.44 107.239 103.931 99.8471C100.323 92.2398 97.993 55.7779 97.8947 54.2248C97.893 54.1783 97.9067 54.1328 97.9331 54.098C97.9595 54.0631 97.9964 54.0415 98.036 54.0379C98.0564 54.0349 98.0771 54.0368 98.0967 54.0437C98.1164 54.0506 98.1346 54.0621 98.1502 54.0777C98.1659 54.0933 98.1785 54.1125 98.1874 54.1341C98.1963 54.1557 98.2013 54.1793 98.202 54.2032C98.202 54.5771 100.624 92.132 104.201 99.6746C107.699 107.052 117.902 124.718 118.007 124.891C118.028 124.931 118.036 124.98 118.028 125.027C118.02 125.074 117.997 125.115 117.964 125.143C117.938 125.163 117.908 125.173 117.877 125.171Z" fill="black"/>
<path opacity="0.6" d="M17.8957 71.4744C17.8657 71.4745 17.8364 71.4643 17.8112 71.4452C17.7861 71.426 17.7663 71.3987 17.7543 71.3665C17.7399 71.3216 17.7408 71.2719 17.7568 71.2277C17.7729 71.1836 17.8028 71.1483 17.8404 71.1292C25.6713 67.3831 50.7681 60.3438 56.6566 59.2149C64.0756 57.8272 89.4245 50.5075 89.6765 50.4356C89.7172 50.4247 89.76 50.4329 89.7956 50.4585C89.8312 50.484 89.8568 50.5248 89.867 50.5722C89.8716 50.5954 89.8721 50.6193 89.8687 50.6427C89.8653 50.6661 89.8579 50.6885 89.8471 50.7085C89.8362 50.7286 89.8221 50.7459 89.8054 50.7596C89.7888 50.7732 89.7701 50.7828 89.7503 50.7879C89.4982 50.8598 64.1371 58.1795 56.7058 59.5745C50.9894 60.6458 25.5913 67.8073 17.9818 71.4672L17.8957 71.4744Z" fill="black"/>
<path opacity="0.8" d="M270.757 19.4742C270.478 19.7636 270.251 20.1147 270.088 20.5072C269.925 20.8997 269.83 21.3259 269.809 21.7615C269.787 22.197 269.839 22.6333 269.962 23.0453C270.084 23.4573 270.275 23.8368 270.524 24.1622L273.665 28.16C274.026 28.609 274.485 28.9346 274.992 29.102L313.489 41.5915C314.159 41.7997 314.849 41.9084 315.542 41.9151H323.188C322.793 41.5997 322.383 41.3116 321.959 41.0522L284.846 18.1799C284.623 18.0514 284.424 17.8727 284.261 17.6541C284.097 17.4355 283.972 17.1814 283.893 16.9062C283.813 16.631 283.781 16.3401 283.798 16.0504C283.815 15.7606 283.881 15.4776 283.991 15.2175L271.938 18.748C271.501 18.8783 271.097 19.1271 270.757 19.4742Z" fill="white"/>
<path d="M143.257 38.5572C143.257 38.5572 147.855 57.482 150.092 58.1507C154.136 59.373 167.819 56.6264 167.548 56.0943L166.424 49.4289C166.424 49.4289 152.458 48.2569 152.17 48.3863L147.738 36.5223L143.257 38.5572Z" fill="#E1715B"/>
<path d="M147.774 39.8515C147.774 39.8515 149.169 38.3343 149.206 36.4864C149.243 34.6385 149.692 33.1861 149.643 31.8127C149.594 30.4394 148.61 31.899 148.223 32.7978C147.836 33.6966 147.387 34.7104 146.852 34.2359C146.317 33.7613 144.025 27.7646 143.226 27.2541C142.427 26.7436 142.543 27.8365 142.543 27.8365C142.543 27.8365 141.929 26.3985 141.4 26.5135C141.259 26.5135 140.964 26.8874 141.148 27.5921C141.56 29.1811 142.568 32.4671 142.568 32.4671C142.513 32.2801 141.019 28.3255 140.724 27.7718C140.349 27.0528 139.851 26.9234 139.495 27.1966C138.997 27.5777 140.724 32.5461 140.644 32.8194C140.644 32.8194 139.747 29.9433 138.978 29.7779C138.21 29.6125 138.695 31.5036 139.384 33.0495C139.999 34.4875 140.945 37.4427 141.707 38.8017C142.648 40.4842 143.607 41.3686 145.199 41.081C146.134 40.9389 147.021 40.5152 147.774 39.8515Z" fill="#E1715B"/>
<path opacity="0.3" d="M143.865 31.6905C143.849 31.6916 143.833 31.6866 143.82 31.6762C143.807 31.6658 143.796 31.6507 143.791 31.633C143.435 30.4179 143.023 29.2243 142.562 28.0379C142.553 28.0159 142.552 27.9909 142.559 27.9681C142.566 27.9453 142.58 27.9265 142.599 27.9156C142.618 27.9073 142.639 27.907 142.658 27.9149C142.677 27.9228 142.693 27.9383 142.703 27.9588C143.146 29.1236 143.558 30.3316 143.933 31.5539C143.939 31.5759 143.938 31.5999 143.93 31.6212C143.922 31.6424 143.908 31.6595 143.89 31.669L143.865 31.6905Z" fill="black"/>
<path opacity="0.3" d="M140.964 34.0704C140.952 34.0697 140.941 34.0661 140.93 34.0599C140.92 34.0538 140.91 34.0451 140.903 34.0345C140.896 34.0265 140.89 34.0169 140.887 34.0065C140.883 33.996 140.881 33.9847 140.881 33.9734C140.881 33.962 140.883 33.9508 140.887 33.9403C140.89 33.9298 140.896 33.9203 140.903 33.9123C142.016 32.8424 143.373 32.1775 144.806 31.9996C144.826 31.9975 144.846 32.0045 144.862 32.0192C144.878 32.0339 144.889 32.0552 144.892 32.0787C144.893 32.0906 144.893 32.1028 144.891 32.1145C144.888 32.1262 144.883 32.1371 144.877 32.1466C144.871 32.1561 144.863 32.1639 144.854 32.1696C144.844 32.1752 144.834 32.1786 144.824 32.1794C143.421 32.3536 142.092 33.0033 141.001 34.0489C140.991 34.0604 140.978 34.0679 140.964 34.0704Z" fill="black"/>
<path opacity="0.3" d="M145.538 38.6291C145.523 38.6286 145.508 38.6229 145.496 38.6126C145.484 38.6023 145.475 38.588 145.47 38.5716C145.242 37.9216 145.215 37.1983 145.396 36.528C145.577 35.8578 145.954 35.2832 146.46 34.9045C146.467 34.8965 146.475 34.8901 146.484 34.8858C146.493 34.8814 146.502 34.8792 146.512 34.8792C146.522 34.8792 146.531 34.8814 146.54 34.8858C146.549 34.8901 146.557 34.8965 146.564 34.9045C146.577 34.9227 146.584 34.9456 146.584 34.9692C146.584 34.9929 146.577 35.0158 146.564 35.034C146.091 35.3926 145.737 35.9308 145.562 36.5583C145.395 37.1906 145.419 37.8712 145.63 38.4853C145.635 38.5073 145.633 38.5307 145.626 38.5516C145.618 38.5725 145.604 38.5897 145.587 38.6003L145.538 38.6291Z" fill="black"/>
<path d="M179.313 32.2514C179.313 32.2514 184.434 27.2182 184.231 25.5069C184.028 23.7956 183.186 24.3349 183.186 24.3349C183.186 24.3349 184.962 20.258 183.217 19.5533C181.471 18.8487 181.373 19.5533 181.373 19.5533C181.373 19.5533 182.067 16.2242 180.678 15.2392C179.627 14.4698 179.178 16.0013 179.178 16.0013C179.178 16.0013 177.168 12.3487 174.765 12.4062C173.579 12.514 172.988 13.4056 173.161 14.477C173.158 14.5249 173.158 14.5729 173.161 14.6208C173.161 14.6208 168.305 12.1401 166.049 13.7004C163.793 15.2607 166.737 16.9504 166.737 16.9504C166.737 16.9504 162.004 16.3752 161.082 18.6042C160.345 20.373 162.447 21.5594 162.447 21.5594C161.941 21.785 161.472 22.1136 161.064 22.5301C160.78 22.8143 160.576 23.1928 160.48 23.6155C160.384 24.0382 160.4 24.4851 160.526 24.8969C160.652 25.3087 160.882 25.6659 161.185 25.9213C161.489 26.1766 161.852 26.318 162.226 26.3266H162.269C162.521 26.3266 162.969 26.3985 163.154 26.1971C163.154 26.1971 162.336 28.196 164.088 28.8432C165.84 29.4903 166.676 27.1103 166.676 27.1103L179.313 32.2514Z" fill="#263238"/>
<path d="M177.703 45.273C177.703 45.273 177.42 42.3969 179.172 35.372L178.859 35.1922C179.098 34.2143 179.356 33.3083 179.602 32.5246C179.604 32.5127 179.604 32.5006 179.602 32.4886L171.378 38.3991C171.569 40.6496 170.868 44.9854 170.456 46.8117L172.583 51.0324L177.703 45.273Z" fill="#E1715B"/>
<path opacity="0.2" d="M171.236 41.5556L175.963 40.326C175.533 42.0445 174.224 44.0722 170.941 44.2304C171.101 43.3496 171.2 42.4551 171.236 41.5556Z" fill="black"/>
<path d="M165.747 21.7967C164.776 24.0113 164.426 28.9007 167.45 27.8869C170.474 26.8731 167.444 17.9787 165.747 21.7967Z" fill="#263238"/>
<path d="M179.676 27.8293C179.111 33.9123 178.895 37.3565 176.129 40.3189C171.974 44.7696 165.785 41.6922 164.783 35.5157C163.879 29.9505 164.955 20.9339 170.173 18.8487C171.328 18.3843 172.564 18.2706 173.767 18.5182C174.969 18.7657 176.099 19.3664 177.048 20.264C177.998 21.1616 178.737 22.3266 179.197 23.6499C179.657 24.9731 179.821 26.4112 179.676 27.8293Z" fill="#E1715B"/>
<path d="M172.14 29.2099C172.14 29.8283 171.815 30.3172 171.464 30.2957C171.114 30.2741 170.85 29.7492 170.85 29.1236C170.85 28.4981 171.182 28.0091 171.526 28.0307C171.87 28.0523 172.165 28.5556 172.14 29.2099Z" fill="#263238"/>
<path d="M166.897 29.0085C166.897 29.6341 166.571 30.123 166.221 30.1014C165.871 30.0799 165.606 29.5478 165.637 28.9294C165.668 28.3111 165.963 27.8149 166.313 27.8365C166.664 27.8581 166.922 28.383 166.897 29.0085Z" fill="#263238"/>
<path d="M168.618 28.7568C168.618 28.7568 166.774 31.7696 166.209 32.9991C166.922 33.826 168.213 33.5384 168.213 33.5384L168.618 28.7568Z" fill="#FD504E"/>
<path d="M173.431 25.8233C173.388 25.837 173.344 25.8369 173.301 25.823C173.259 25.809 173.221 25.7818 173.191 25.7442C172.974 25.4783 172.707 25.2749 172.412 25.1502C172.116 25.0254 171.8 24.9826 171.488 25.0251C171.426 25.0322 171.364 25.012 171.314 24.9685C171.264 24.9249 171.229 24.8612 171.217 24.7895C171.205 24.7179 171.215 24.6435 171.247 24.5807C171.279 24.518 171.33 24.4714 171.39 24.4499C171.786 24.3915 172.188 24.4439 172.563 24.6026C172.938 24.7614 173.275 25.022 173.547 25.3631C173.593 25.4181 173.618 25.4915 173.618 25.568C173.618 25.6445 173.593 25.718 173.547 25.7729C173.514 25.8041 173.473 25.8217 173.431 25.8233Z" fill="#263238"/>
<path d="M164.672 26.19C164.629 26.1726 164.591 26.1425 164.562 26.1028C164.533 26.0631 164.513 26.015 164.504 25.9635C164.495 25.9119 164.498 25.8586 164.512 25.8088C164.527 25.759 164.552 25.7144 164.586 25.6795C164.887 25.3793 165.247 25.169 165.633 25.0663C166.02 24.9637 166.421 24.9717 166.804 25.0899C166.867 25.1145 166.918 25.1667 166.948 25.2352C166.978 25.3037 166.984 25.3831 166.964 25.4566C166.955 25.4932 166.939 25.5272 166.918 25.5565C166.896 25.5858 166.87 25.6099 166.841 25.6273C166.812 25.6447 166.78 25.6551 166.747 25.6579C166.715 25.6607 166.682 25.6558 166.651 25.6435C166.347 25.5545 166.03 25.5531 165.726 25.6395C165.422 25.726 165.14 25.8976 164.905 26.1396C164.873 26.1698 164.835 26.1902 164.794 26.199C164.753 26.2078 164.711 26.2047 164.672 26.19Z" fill="#263238"/>
<path d="M168.919 35.2569C169.762 34.9477 171.304 34.2862 172.054 33.3658C172.151 33.5789 172.224 33.8062 172.269 34.0417C172.356 34.455 172.356 34.8867 172.269 35.3C172.085 36.1413 171.452 37.0545 169.762 37.6009H169.725C169.725 37.6009 168.809 37.8742 168.348 35.4438C168.342 35.451 168.569 35.3863 168.919 35.2569Z" fill="#263238"/>
<path d="M168.919 35.2569L169.245 35.9112C170.837 35.3935 171.9 34.7751 172.269 34.0417C172.223 33.8062 172.151 33.5789 172.054 33.3658C171.304 34.2862 169.761 34.9621 168.919 35.2569Z" fill="white"/>
<path d="M169.768 37.6009C171.458 37.0545 172.091 36.1629 172.275 35.3C171.635 35.5238 171.033 35.8793 170.499 36.3498C170.151 36.6684 169.895 37.1055 169.768 37.6009Z" fill="#FB504E"/>
<path d="M178.114 32.539C177.64 32.3012 177.235 31.9094 176.946 31.4101C176.754 30.8973 176.694 30.33 176.774 29.7779C176.816 29.1985 176.885 28.6224 176.983 28.0523C176.522 28.3255 175.957 27.8941 175.705 27.3332C175.385 26.4995 175.281 25.575 175.403 24.6728C175.108 24.7532 174.8 24.7402 174.511 24.6354C174.221 24.5305 173.961 24.3375 173.756 24.076C173.564 23.8011 173.459 23.4569 173.459 23.1018C173.459 22.7466 173.564 22.4024 173.756 22.1275C171.829 22.4285 169.871 22.2868 167.99 21.7104C168.12 21.9909 167.99 22.3288 167.8 22.5805C167.12 23.6099 166.14 24.3111 165.046 24.5506C164.886 24.5866 164.69 24.5937 164.597 24.4356C164.56 24.3438 164.548 24.2411 164.561 24.1408C164.614 23.5229 164.772 22.9236 165.024 22.377C165.276 21.8304 165.618 21.3474 166.03 20.9555C166.855 20.1794 167.789 19.5761 168.79 19.1723C170.419 18.3957 172.139 17.9109 173.891 17.7342C175.652 17.5643 177.421 17.9232 179.03 18.7768C179.384 18.951 179.7 19.2136 179.958 19.5462C180.176 19.8922 180.333 20.2858 180.419 20.7038C181.064 23.1916 181.31 25.7977 181.144 28.3902" fill="#263238"/>
<path d="M181.532 33.0278C181.305 33.7392 180.959 34.3907 180.515 34.9448C180.07 35.4989 179.537 35.9447 178.945 36.2563C177.353 37.076 176.295 35.4725 176.523 33.5599C176.726 31.8342 177.795 29.332 179.498 29.3248C181.201 29.3177 182.086 31.259 181.532 33.0278Z" fill="#E1715B"/>
<path opacity="0.2" d="M177.955 33.1501C177.934 33.1466 177.915 33.1384 177.897 33.1259C177.88 33.1135 177.864 33.0971 177.852 33.0777C177.84 33.0582 177.832 33.0362 177.827 33.0128C177.823 32.9894 177.822 32.9652 177.825 32.9416C177.903 32.3883 178.102 31.868 178.403 31.4316C178.653 31.0403 179.012 30.7632 179.417 30.6479C179.633 30.5946 179.856 30.6167 180.061 30.7113C180.265 30.806 180.441 30.9689 180.567 31.1799C180.587 31.2216 180.592 31.2703 180.583 31.3167C180.574 31.3631 180.551 31.404 180.518 31.4316C180.482 31.4555 180.439 31.4622 180.399 31.4501C180.359 31.438 180.324 31.4082 180.303 31.3669C180.211 31.2187 180.084 31.1052 179.937 31.04C179.791 30.9749 179.632 30.961 179.479 31.0002C179.144 31.0992 178.849 31.3303 178.643 31.6545C178.378 32.0444 178.202 32.5073 178.133 32.9991C178.13 33.0228 178.123 33.0456 178.112 33.0661C178.102 33.0866 178.088 33.1045 178.071 33.1186C178.054 33.1326 178.035 33.1427 178.015 33.1481C177.995 33.1535 177.975 33.1542 177.955 33.1501Z" fill="black"/>
<path d="M170.069 55.2027C170.069 55.2027 154.782 60.43 149.232 60.6601C143.681 60.8902 131.406 57.8559 131.406 57.8559L132.101 51.2552L150.135 52.3338L169.743 44.6761L170.069 55.2027Z" fill="#E1715B"/>
<path d="M164.604 59.2365L167.609 44.705L175.243 43.1447C175.581 43.0872 181.777 42.4904 183.64 50.45L184.052 56.7703L164.604 59.2365Z" fill="#263238"/>
<path d="M171.796 57.784C171.372 57.784 159.503 60.3222 159.503 60.3222L157.044 49.0047C160.5 47.3358 164.034 45.8955 167.629 44.6905C173.283 42.9002 178.582 42.3465 179.799 45.4096C182.092 51.2912 171.796 57.784 171.796 57.784Z" fill="#263238"/>
<path opacity="0.3" d="M147.16 52.2619L150.129 52.4417L157.843 49.3499C157.843 49.3499 159.441 48.5445 159.036 48.7099C158.63 48.8753 155.434 48.4798 155.218 48.523C155.003 48.5661 147.16 52.2619 147.16 52.2619Z" fill="black"/>
<path d="M126.169 48.257C125.819 48.5014 121.731 53.4412 121.731 53.4412L122.531 59.5673L127.669 53.3621L126.169 48.257Z" fill="#263238"/>
<path d="M132.322 61.0341C131.885 61.2838 131.382 61.322 130.922 61.1402C130.461 60.9585 130.081 60.5715 129.863 60.0634L121.725 40.7143C121.511 40.2037 121.479 39.6152 121.634 39.0766C121.789 38.5381 122.12 38.093 122.554 37.8382C122.991 37.5884 123.494 37.5503 123.954 37.732C124.415 37.9138 124.795 38.3008 125.013 38.8089L133.17 58.1364C133.278 58.3916 133.341 58.6692 133.357 58.9534C133.373 59.2375 133.34 59.5225 133.262 59.7919C133.183 60.0613 133.059 60.3097 132.898 60.5229C132.736 60.7361 132.541 60.9098 132.322 61.0341Z" fill="#263238"/>
<path d="M138.192 51.7874L131.48 50.7304L129.544 47.9837C129.544 47.9837 126.132 47.6242 125.401 48.3361C124.669 49.0479 123.932 51.3128 123.932 51.3128C123.932 51.3128 123.041 53.1751 124.546 54.1458C124.546 54.1458 123.581 55.7996 125.303 56.9644C125.303 56.9644 124.036 57.8057 125.85 58.6757C126.547 59.001 127.293 59.1596 128.043 59.1423C128.794 59.125 129.534 58.9321 130.22 58.575C131.225 58.2879 132.263 58.198 133.293 58.309L139.397 59.5673L138.192 51.7874Z" fill="#E1715B"/>
</svg>
