<svg width="78" height="40" viewBox="0 0 78 40" fill="none" xmlns="http://www.w3.org/2000/svg">
<path d="M0.472668 23.0849V30.3111C0.470853 31.0657 0.676651 31.8011 1.05964 32.4084C1.44263 33.0156 1.98249 33.4626 2.59942 33.6833L3.10344 33.8631C3.41352 33.9769 3.73745 34.0303 4.06232 34.0213L7.38767 33.9278C7.03212 32.4792 6.96524 30.9545 7.19218 29.471C7.41911 27.9874 7.93382 26.5845 8.69673 25.37C9.45964 24.1556 10.4504 23.1619 11.593 22.4654C12.7355 21.7688 13.9994 21.3881 15.2874 21.3523C16.5754 21.3165 17.8533 21.6266 19.0228 22.2589C20.1923 22.8911 21.2223 23.8287 22.0337 24.9994C22.845 26.1701 23.4161 27.5429 23.703 29.0122C23.9899 30.4814 23.985 32.0081 23.6886 33.4748L57.526 32.5329C57.4718 32.0707 57.4451 31.6046 57.4461 31.138C57.4211 29.8217 57.6217 28.5128 58.0361 27.2886C58.4506 26.0645 59.0704 24.9498 59.8592 24.0105C60.6479 23.0712 61.5895 22.3262 62.6284 21.8196C63.6673 21.3129 64.7825 21.0549 65.908 21.0606C67.0336 21.0664 68.1467 21.3359 69.1818 21.8531C70.2168 22.3704 71.1528 23.125 71.9345 24.0723C72.7162 25.0197 73.3277 26.1406 73.733 27.369C74.1383 28.5973 74.3291 29.9082 74.2941 31.2243C74.2941 31.4184 74.2941 31.6054 74.2941 31.7923L74.4294 31.7276L75.5849 31.1236C76.1382 30.8224 76.606 30.3419 76.9328 29.7391C77.2597 29.1363 77.4318 28.4364 77.4289 27.7226V13.0113C77.4302 12.3317 77.2721 11.6647 76.9719 11.0828C76.6717 10.5009 76.2409 10.0264 75.7263 9.71094L67.0288 4.36139C66.9311 4.297 66.8552 4.19552 66.8136 4.07377C66.7892 4.00557 66.777 3.93223 66.7778 3.85829C66.7786 3.78435 66.7924 3.71138 66.8184 3.64395C66.8443 3.57651 66.8819 3.51605 66.9286 3.4663C66.9754 3.41654 67.0304 3.37857 67.0902 3.35474L68.1536 2.90895C68.1969 2.89032 68.2351 2.8585 68.2643 2.81677C68.2934 2.77505 68.3125 2.72494 68.3196 2.67167C68.3239 2.63385 68.3217 2.59541 68.3132 2.55859C68.3046 2.52177 68.29 2.4873 68.2699 2.45718C68.2499 2.42707 68.225 2.40192 68.1966 2.38319C68.1681 2.36446 68.1368 2.35254 68.1044 2.3481C63.9739 1.67222 47.9003 -0.786863 39.4487 0.421104C29.7247 1.84478 20.394 11.7386 20.394 11.7386C13.2209 11.4222 6.52714 14.3487 3.64435 15.8083C3.18406 16.0432 2.7711 16.3885 2.43225 16.8221C2.09341 17.2556 1.83624 17.7676 1.67742 18.3249L0.687801 21.7403C0.555416 22.1722 0.482793 22.6261 0.472668 23.0849Z" fill="#407BFF"/>
<path d="M57.5328 32.5329C57.4835 32.0991 57.4589 31.6619 57.459 31.2243C57.459 31.0014 57.459 30.7785 57.459 30.5628L51.3123 27.6292C50.9535 27.4607 50.5673 27.387 50.1814 27.4134L28.8955 29.0528C28.5481 29.0747 28.2087 29.1825 27.8997 29.3692L23.8552 31.8067C23.8277 32.3684 23.7599 32.9265 23.6523 33.4749L57.5328 32.5329Z" fill="#263238"/>
<path d="M77.4528 27.7225V27.3486L73.9922 28.5854C74.1904 29.4459 74.2917 30.333 74.2934 31.2242C74.2934 31.4183 74.2934 31.6053 74.2934 31.7922L74.4286 31.7275L75.5903 31.1235C76.1466 30.8247 76.6177 30.3454 76.9479 29.7425C77.2781 29.1396 77.4533 28.4385 77.4528 27.7225Z" fill="#263238"/>
<path d="M1.45605 32.9068C1.78544 33.2656 2.18076 33.5312 2.61163 33.6833L3.11565 33.8631C3.42572 33.9769 3.74966 34.0303 4.07453 34.0213L7.39988 33.9278C7.27767 33.4359 7.18928 32.9334 7.13557 32.425L1.45605 32.9068Z" fill="#263238"/>
<path d="M65.8791 20.4388C65.4968 20.4389 65.1149 20.4677 64.7358 20.5251C62.3138 20.8841 60.1124 22.3522 58.6144 24.6073C57.1165 26.8624 56.4442 29.7204 56.7452 32.5545H57.5442C57.49 32.0922 57.4633 31.6261 57.4643 31.1596C57.4392 29.8432 57.6399 28.5343 58.0543 27.3102C58.4688 26.086 59.0886 24.9714 59.8774 24.0321C60.6661 23.0928 61.6077 22.3478 62.6466 21.8412C63.6855 21.3345 64.8006 21.0764 65.9262 21.0822C67.0517 21.088 68.1649 21.3574 69.2 21.8747C70.235 22.392 71.171 23.1466 71.9527 24.0939C72.7344 25.0413 73.3459 26.1622 73.7512 27.3906C74.1564 28.6189 74.3472 29.9298 74.3123 31.2458C74.3123 31.44 74.3123 31.6269 74.3123 31.8139L74.4476 31.7491L75.1114 31.3968V31.2458C75.1114 28.3854 74.14 25.642 72.4109 23.6194C70.6818 21.5967 68.3367 20.4604 65.8914 20.4604L65.8791 20.4388Z" fill="#263238"/>
<path d="M15.4767 20.4388C14.6885 20.4403 13.9037 20.5587 13.141 20.7912C10.7758 21.5144 8.75308 23.3069 7.51744 25.7744C6.2818 28.2419 5.93445 31.1824 6.55175 33.9494H7.3754C7.01985 32.5008 6.95297 30.9761 7.17991 29.4925C7.40685 28.009 7.92155 26.6061 8.68446 25.3916C9.44737 24.1771 10.4382 23.1834 11.5807 22.4869C12.7232 21.7904 13.9871 21.4096 15.2751 21.3738C16.5631 21.338 17.841 21.6482 19.0105 22.2805C20.18 22.9127 21.21 23.8502 22.0214 25.021C22.8327 26.1917 23.4038 27.5645 23.6907 29.0337C23.9776 30.503 23.9727 32.0297 23.6764 33.4964H24.4877C24.623 32.7615 24.691 32.0119 24.6906 31.2602C24.6906 28.3997 23.7192 25.6564 21.9901 23.6338C20.261 21.6111 17.9159 20.4748 15.4706 20.4748L15.4767 20.4388Z" fill="#263238"/>
<path d="M23.5714 11.5661C23.4742 11.6502 23.4064 11.7729 23.3809 11.9112C23.3549 12.0672 23.3812 12.229 23.4545 12.3629C23.5277 12.4968 23.6422 12.5925 23.7743 12.6302L27.3086 13.5793C27.6234 13.6595 27.9473 13.6789 28.2675 13.6369L54.2863 9.85478C54.9191 9.76131 55.5051 9.41603 55.9459 8.8769L59.2958 4.72811C59.4085 4.59141 59.4778 4.41386 59.4925 4.22479C59.5019 4.11383 59.4924 4.0018 59.4647 3.89512C59.437 3.78844 59.3916 3.68919 59.3311 3.60305C59.2706 3.5169 59.1962 3.44556 59.1121 3.39308C59.028 3.34061 58.9359 3.30804 58.841 3.29724C52.5837 2.57821 44.6729 1.9239 39.7003 2.63573C33.1787 3.59204 26.6878 8.74747 23.5714 11.5661Z" fill="#263238"/>
<g opacity="0.3">
<path d="M40.6784 15.0606C40.6387 15.0437 40.6023 15.0179 40.5712 14.9845C40.5401 14.9511 40.515 14.9109 40.4973 14.8661C40.4796 14.8213 40.4696 14.7729 40.468 14.7236C40.4664 14.6743 40.4731 14.6251 40.4878 14.5788C40.5228 14.4597 40.5881 14.356 40.6748 14.2815C40.7616 14.2069 40.8658 14.1652 40.9734 14.1618L44.0775 14.0108C44.1176 13.9972 44.1602 13.9972 44.2004 14.0108C44.2806 14.045 44.3461 14.1146 44.3829 14.2046C44.4197 14.2947 44.4248 14.3981 44.3971 14.4925C44.3602 14.6116 44.2936 14.7151 44.206 14.7894C44.1183 14.8638 44.0136 14.9056 43.9054 14.9096L40.8013 15.0606C40.7605 15.0676 40.7191 15.0676 40.6784 15.0606Z" fill="black"/>
</g>
<path d="M63.7528 4.65615C63.623 4.79508 63.5447 4.98769 63.5344 5.19308C63.524 5.39848 63.5825 5.60049 63.6975 5.75626L64.4351 6.691C64.5204 6.7971 64.6287 6.87413 64.7485 6.9139L73.7657 9.84035C73.9219 9.88984 74.0833 9.91404 74.2451 9.91225H76.0338C75.9405 9.83937 75.8441 9.77216 75.7449 9.71092L67.0474 4.35416C66.9921 4.32461 66.9428 4.28189 66.9025 4.22873C66.8621 4.17558 66.8318 4.11317 66.8132 4.04549C66.7947 3.97781 66.7885 3.90634 66.7949 3.83568C66.8014 3.76502 66.8204 3.69671 66.8507 3.63513L64.0232 4.46202C63.9212 4.50072 63.8285 4.56726 63.7528 4.65615Z" fill="#263238"/>
<path d="M20.3945 11.7386L20.8863 11.9039C21.0741 11.9629 21.2712 11.9688 21.4614 11.9213C21.6516 11.8738 21.8295 11.7742 21.9804 11.6307C24.8324 8.80493 29.7866 4.44043 35.1342 2.46311C35.1465 2.45894 35.1579 2.45161 35.1675 2.44166C35.177 2.43171 35.1846 2.41938 35.1896 2.40558C35.1961 2.39239 35.2004 2.3778 35.2021 2.36267C35.2038 2.34754 35.2029 2.33217 35.1994 2.31745C35.196 2.30273 35.1901 2.28896 35.1821 2.27693C35.174 2.2649 35.1641 2.25486 35.1527 2.2474L34.4888 1.85193C26.7625 4.97251 20.3945 11.7386 20.3945 11.7386Z" fill="#263238"/>
<path d="M65.8857 39.4355C69.7625 39.4355 72.9052 35.7592 72.9052 31.2242C72.9052 26.6893 69.7625 23.0129 65.8857 23.0129C62.0089 23.0129 58.8662 26.6893 58.8662 31.2242C58.8662 35.7592 62.0089 39.4355 65.8857 39.4355Z" fill="#263238"/>
<path opacity="0.4" d="M65.8847 36.2574C68.261 36.2574 70.1874 34.004 70.1874 31.2242C70.1874 28.4445 68.261 26.191 65.8847 26.191C63.5084 26.191 61.582 28.4445 61.582 31.2242C61.582 34.004 63.5084 36.2574 65.8847 36.2574Z" fill="white"/>
<g opacity="0.3">
<path d="M66.2294 27.0971C66.2294 26.8747 66.0753 26.6945 65.8852 26.6945C65.6951 26.6945 65.541 26.8747 65.541 27.0971V29.6784C65.541 29.9008 65.6951 30.0811 65.8852 30.0811C66.0753 30.0811 66.2294 29.9008 66.2294 29.6784V27.0971Z" fill="white"/>
</g>
<g opacity="0.3">
<path d="M66.2294 32.7701C66.2294 32.5477 66.0753 32.3674 65.8852 32.3674C65.6951 32.3674 65.541 32.5477 65.541 32.7701V35.3514C65.541 35.5738 65.6951 35.754 65.8852 35.754C66.0753 35.754 66.2294 35.5738 66.2294 35.3514V32.7701Z" fill="white"/>
</g>
<g opacity="0.3">
<path d="M67.2009 30.8001C67.1208 30.8524 67.0264 30.8658 66.9379 30.8376C66.8494 30.8094 66.7739 30.7417 66.7276 30.649C66.6832 30.5564 66.6719 30.4471 66.696 30.3447C66.7202 30.2424 66.778 30.1554 66.8567 30.1026L68.7683 28.8012C68.8475 28.7492 68.941 28.7359 69.0285 28.7642C69.116 28.7925 69.1904 28.86 69.2355 28.9521C69.2586 28.9973 69.2737 29.0474 69.28 29.0995C69.2863 29.1516 69.2836 29.2047 69.2722 29.2556C69.2607 29.3065 69.2407 29.3542 69.2133 29.3959C69.1859 29.4376 69.1516 29.4726 69.1125 29.4986L67.2009 30.8001Z" fill="white"/>
</g>
<g opacity="0.3">
<path d="M63.0037 33.6259C62.9236 33.6782 62.8291 33.6917 62.7406 33.6634C62.6522 33.6352 62.5767 33.5675 62.5304 33.4749C62.4859 33.3823 62.4746 33.2729 62.4988 33.1705C62.5229 33.0682 62.5807 32.9812 62.6594 32.9284L64.5649 31.627C64.645 31.5746 64.7394 31.5612 64.8279 31.5894C64.9164 31.6176 64.9919 31.6853 65.0382 31.778C65.0819 31.8712 65.0935 31.9804 65.0707 32.0833C65.0478 32.1862 64.9922 32.2751 64.9153 32.3316L63.0037 33.6259Z" fill="white"/>
</g>
<g opacity="0.3">
<path d="M68.7688 33.633L66.8571 32.3387C66.7779 32.2846 66.7201 32.1963 66.6959 32.0927C66.6718 31.9892 66.6833 31.8788 66.7281 31.7851C66.7509 31.7391 66.7813 31.6989 66.8175 31.6667C66.8538 31.6346 66.8951 31.6111 66.9391 31.5978C66.9831 31.5844 67.0289 31.5814 67.0739 31.5888C67.1189 31.5963 67.1623 31.6141 67.2013 31.6413L69.113 32.9355C69.1911 32.9909 69.2477 33.0797 69.2707 33.1831C69.2936 33.2865 69.2812 33.3964 69.2359 33.4892C69.2136 33.5349 69.1838 33.575 69.1481 33.6071C69.1125 33.6391 69.0717 33.6625 69.0282 33.6759C68.9847 33.6893 68.9393 33.6924 68.8948 33.685C68.8502 33.6777 68.8074 33.66 68.7688 33.633Z" fill="white"/>
</g>
<g opacity="0.3">
<path d="M65.0382 30.6489C64.9919 30.7416 64.9164 30.8093 64.8279 30.8375C64.7394 30.8657 64.645 30.8523 64.5649 30.7999L62.6594 29.4985C62.5807 29.4457 62.5229 29.3587 62.4988 29.2563C62.4746 29.154 62.4859 29.0446 62.5304 28.952C62.5767 28.8594 62.6522 28.7917 62.7406 28.7635C62.8291 28.7352 62.9236 28.7487 63.0037 28.801L64.9153 30.1025C64.993 30.1565 65.0494 30.244 65.0724 30.3463C65.0954 30.4485 65.0832 30.5572 65.0382 30.6489Z" fill="white"/>
</g>
<path d="M65.3076 31.217C65.3092 31.039 65.3708 30.8689 65.479 30.7437C65.5872 30.6185 65.7332 30.5483 65.8854 30.5483C65.9997 30.5483 66.1114 30.588 66.2064 30.6622C66.3014 30.7365 66.3755 30.8421 66.4192 30.9656C66.4629 31.0891 66.4744 31.225 66.4521 31.3561C66.4298 31.4872 66.3748 31.6076 66.294 31.7021C66.2132 31.7967 66.1102 31.861 65.9981 31.8871C65.886 31.9132 65.7699 31.8998 65.6643 31.8487C65.5587 31.7975 65.4685 31.7109 65.405 31.5997C65.3415 31.4886 65.3076 31.3579 65.3076 31.2242V31.217Z" fill="#263238"/>
<path d="M15.4951 39.4355C19.3718 39.4355 22.5146 35.7592 22.5146 31.2242C22.5146 26.6893 19.3718 23.0129 15.4951 23.0129C11.6183 23.0129 8.47559 26.6893 8.47559 31.2242C8.47559 35.7592 11.6183 39.4355 15.4951 39.4355Z" fill="#263238"/>
<path opacity="0.4" d="M15.495 36.2574C17.8713 36.2574 19.7977 34.004 19.7977 31.2242C19.7977 28.4445 17.8713 26.191 15.495 26.191C13.1188 26.191 11.1924 28.4445 11.1924 31.2242C11.1924 34.004 13.1188 36.2574 15.495 36.2574Z" fill="white"/>
<g opacity="0.3">
<path d="M15.8398 27.0971C15.8398 26.8747 15.6857 26.6945 15.4956 26.6945C15.3055 26.6945 15.1514 26.8747 15.1514 27.0971V29.6784C15.1514 29.9008 15.3055 30.0811 15.4956 30.0811C15.6857 30.0811 15.8398 29.9008 15.8398 29.6784V27.0971Z" fill="white"/>
</g>
<g opacity="0.3">
<path d="M15.8398 32.7701C15.8398 32.5477 15.6857 32.3674 15.4956 32.3674C15.3055 32.3674 15.1514 32.5477 15.1514 32.7701V35.3514C15.1514 35.5738 15.3055 35.754 15.4956 35.754C15.6857 35.754 15.8398 35.5738 15.8398 35.3514V32.7701Z" fill="white"/>
</g>
<g opacity="0.3">
<path d="M16.8106 30.8001C16.7314 30.852 16.6379 30.8653 16.5504 30.837C16.4629 30.8087 16.3885 30.7412 16.3434 30.649C16.2985 30.5573 16.2862 30.4486 16.3092 30.3464C16.3322 30.2441 16.3886 30.1566 16.4664 30.1026L18.378 28.8012C18.4571 28.7492 18.5506 28.7359 18.6381 28.7642C18.7256 28.7925 18.8 28.86 18.8451 28.9521C18.8895 29.0447 18.9009 29.1541 18.8767 29.2564C18.8525 29.3588 18.7948 29.4458 18.716 29.4986L16.8106 30.8001Z" fill="white"/>
</g>
<g opacity="0.3">
<path d="M12.1445 33.4749C12.1215 33.4297 12.1063 33.3796 12.1 33.3275C12.0937 33.2753 12.0964 33.2223 12.1078 33.1714C12.1193 33.1205 12.1393 33.0728 12.1667 33.0311C12.1941 32.9893 12.2284 32.9544 12.2675 32.9284L14.1791 31.627C14.2592 31.5746 14.3536 31.5612 14.4421 31.5894C14.5306 31.6176 14.6061 31.6853 14.6524 31.778C14.6971 31.8716 14.7086 31.9821 14.6845 32.0856C14.6603 32.1891 14.6025 32.2775 14.5233 32.3316L12.6178 33.6259C12.5377 33.6782 12.4433 33.6917 12.3548 33.6634C12.2663 33.6352 12.1908 33.5675 12.1445 33.4749Z" fill="white"/>
</g>
<g opacity="0.3">
<path d="M18.8516 33.4892C18.8287 33.5352 18.7983 33.5754 18.7621 33.6075C18.7259 33.6397 18.6845 33.6631 18.6405 33.6765C18.5965 33.6899 18.5507 33.6929 18.5057 33.6854C18.4607 33.678 18.4174 33.6601 18.3783 33.633L16.4667 32.3387C16.3897 32.2822 16.3341 32.1933 16.3113 32.0904C16.2884 31.9875 16.3 31.8783 16.3437 31.7851C16.3666 31.7391 16.397 31.6989 16.4332 31.6667C16.4694 31.6346 16.5107 31.6111 16.5547 31.5978C16.5988 31.5844 16.6446 31.5814 16.6896 31.5888C16.7346 31.5963 16.7779 31.6141 16.817 31.6413L18.7225 32.9355C18.8017 32.9897 18.8595 33.078 18.8837 33.1815C18.9078 33.285 18.8963 33.3955 18.8516 33.4892Z" fill="white"/>
</g>
<g opacity="0.3">
<path d="M14.6462 30.6561C14.6001 30.747 14.5252 30.8131 14.4378 30.84C14.3504 30.8669 14.2575 30.8525 14.1791 30.7999L12.2675 29.4985C12.2284 29.4725 12.1941 29.4375 12.1667 29.3958C12.1393 29.3541 12.1193 29.3064 12.1078 29.2555C12.0964 29.2046 12.0937 29.1515 12.1 29.0994C12.1063 29.0473 12.1215 28.9972 12.1445 28.952C12.1908 28.8594 12.2663 28.7917 12.3548 28.7635C12.4433 28.7352 12.5377 28.7487 12.6178 28.801L14.5233 30.1025C14.602 30.1553 14.6598 30.2423 14.684 30.3446C14.7081 30.447 14.6968 30.5563 14.6524 30.6489L14.6462 30.6561Z" fill="white"/>
</g>
<path d="M15.477 30.5484C15.5894 30.5568 15.6973 30.6035 15.7873 30.6826C15.8774 30.7618 15.9456 30.8701 15.9838 30.9941C16.0219 31.1181 16.0282 31.2524 16.0019 31.3806C15.9756 31.5087 15.9179 31.6251 15.8358 31.7153C15.7537 31.8056 15.6509 31.8658 15.5399 31.8886C15.429 31.9114 15.3147 31.8957 15.2113 31.8435C15.1079 31.7913 15.0197 31.7049 14.9577 31.5949C14.8957 31.4849 14.8625 31.356 14.8623 31.2243C14.8621 31.1318 14.8782 31.0402 14.9095 30.9552C14.9408 30.8703 14.9867 30.7938 15.0444 30.7304C15.102 30.6671 15.1701 30.6182 15.2445 30.5869C15.3189 30.5556 15.3981 30.5425 15.477 30.5484Z" fill="#263238"/>
<path opacity="0.3" d="M76.7162 15.7363C76.8282 15.6934 76.9212 15.6008 76.9752 15.4784C77.0293 15.356 77.04 15.2136 77.0051 15.082C76.9252 13.3563 76.6117 11.8176 75.7082 10.7678C75.68 10.6534 75.6184 10.5541 75.5342 10.4872C75.4501 10.4202 75.3485 10.3898 75.2472 10.4011L69.8996 10.9907C69.806 11.0019 69.7179 11.0472 69.6476 11.1202C69.5679 11.2167 69.5234 11.3456 69.5234 11.4797C69.5234 11.6138 69.5679 11.7427 69.6476 11.8392L71.1781 13.7734C71.2333 13.8383 71.3006 13.8876 71.3748 13.9172L76.4949 15.7291C76.567 15.7534 76.6431 15.7559 76.7162 15.7363Z" fill="black"/>
<path d="M23.3821 11.9112C23.3528 12.0675 23.3778 12.2311 23.4516 12.3659C23.5253 12.5007 23.6418 12.5958 23.7754 12.6302L27.3098 13.5793C27.6237 13.6667 27.9487 13.6862 28.2687 13.6368L29.2152 13.5002L30.3462 6.39624C27.9765 7.89439 25.7153 9.61618 23.5849 11.5445C23.4801 11.6323 23.4076 11.7634 23.3821 11.9112Z" fill="black"/>
<path d="M46.1358 2.39124L44.0459 11.3935L47.0024 10.9692L48.1396 2.39124H46.1358Z" fill="black"/>
<path d="M59.4991 4.23908C59.5163 4.01539 59.4576 3.79274 59.3357 3.61921C59.2138 3.44567 59.0385 3.33517 58.8476 3.31153C58.0116 3.21087 57.1265 3.1174 56.2352 3.02393L55.9033 8.94871L55.9463 8.89838L59.2963 4.74959C59.4096 4.60981 59.4808 4.43056 59.4991 4.23908Z" fill="black"/>
<path d="M29.1093 12.2275C28.942 12.2284 28.7762 12.1906 28.6214 12.1161C28.4667 12.0417 28.3261 11.9321 28.2078 11.7937C28.0895 11.6553 27.9958 11.4908 27.9321 11.3098C27.8685 11.1288 27.8361 10.9348 27.8369 10.7391C27.8398 10.4031 27.9397 10.0781 28.1205 9.81702C28.3013 9.55592 28.5523 9.37406 28.8327 9.30103L30.5353 8.86243L30.9348 12.1915L29.14 12.2419L29.1093 12.2275Z" fill="#407BFF"/>
<path opacity="0.3" d="M30.438 12.1916L30.9359 12.1772L30.5364 8.84814L30.0508 8.97038L30.438 12.1916Z" fill="black"/>
</svg>
