<svg width="56" height="50" viewBox="0 0 56 50" fill="none" xmlns="http://www.w3.org/2000/svg">
<rect width="56" height="50" rx="15" fill="#DAEAF3"/>
<path d="M35.6562 27.1919C34.6933 29.2337 33.39 31.2694 32.0546 33.0962C30.7235 34.9173 29.3878 36.4939 28.3832 37.6163C28.2497 37.7654 28.1222 37.9064 28.0016 38.0386C27.8809 37.9064 27.7534 37.7654 27.6199 37.6163C26.6153 36.4939 25.2796 34.9173 23.9485 33.0962C22.6132 31.2694 21.3098 29.2337 20.347 27.1919C19.3741 25.129 18.8141 23.196 18.8141 21.5385C18.8141 16.228 22.9274 11.9231 28.0016 11.9231C33.0757 11.9231 37.1891 16.228 37.1891 21.5385C37.1891 23.196 36.629 25.129 35.6562 27.1919ZM28.0016 40.7692C28.0016 40.7692 39.0266 29.8341 39.0266 21.5385C39.0266 15.1659 34.0905 10 28.0016 10C21.9126 10 16.9766 15.1659 16.9766 21.5385C16.9766 29.8341 28.0016 40.7692 28.0016 40.7692Z" fill="#003F62"/>
<path d="M28.0016 25.3846C25.9719 25.3846 24.3266 23.6626 24.3266 21.5385C24.3266 19.4143 25.9719 17.6923 28.0016 17.6923C30.0312 17.6923 31.6766 19.4143 31.6766 21.5385C31.6766 23.6626 30.0312 25.3846 28.0016 25.3846ZM28.0016 27.3077C31.046 27.3077 33.5141 24.7247 33.5141 21.5385C33.5141 18.3522 31.046 15.7692 28.0016 15.7692C24.9571 15.7692 22.4891 18.3522 22.4891 21.5385C22.4891 24.7247 24.9571 27.3077 28.0016 27.3077Z" fill="#003F62"/>
</svg>
