<svg width="80" height="65" viewBox="0 0 80 65" fill="none" xmlns="http://www.w3.org/2000/svg">
<rect width="80" height="65" rx="15" fill="#EDA415"/>
<path d="M40.4688 27.3125C40.4688 26.7947 40.035 26.375 39.5 26.375C38.965 26.375 38.5312 26.7947 38.5312 27.3125V33.6153L35.7631 38.0802C35.4878 38.5241 35.6366 39.1 36.0953 39.3664C36.5541 39.6328 37.1492 39.4888 37.4244 39.0448L40.3307 34.3573C40.421 34.2116 40.4688 34.0449 40.4688 33.875V27.3125Z" fill="#001622"/>
<path d="M36.5938 17C36.0587 17 35.625 17.4197 35.625 17.9375C35.625 18.4553 36.0587 18.875 36.5938 18.875H37.5625V20.883C30.9895 21.7932 25.9375 27.2628 25.9375 33.875C25.9375 38.1078 28.0086 41.872 31.2202 44.271L30.054 45.3996C29.6756 45.7657 29.6756 46.3593 30.054 46.7254C30.4323 47.0915 31.0457 47.0915 31.424 46.7254L32.8691 45.3269C34.8303 46.3924 37.093 47 39.5 47C41.907 47 44.1697 46.3924 46.1309 45.3269L47.576 46.7254C47.9543 47.0915 48.5677 47.0915 48.946 46.7254C49.3244 46.3593 49.3244 45.7657 48.946 45.3996L47.7798 44.271C50.9914 41.872 53.0625 38.1078 53.0625 33.875C53.0625 27.2628 48.0105 21.7932 41.4375 20.883V18.875H42.4062C42.9413 18.875 43.375 18.4553 43.375 17.9375C43.375 17.4197 42.9413 17 42.4062 17H36.5938ZM38.6047 22.6578C38.9 22.6361 39.1986 22.625 39.5 22.625C39.8014 22.625 40.1 22.6361 40.3953 22.6578C46.3968 23.0996 51.125 27.9534 51.125 33.875C51.125 37.8569 48.9881 41.3563 45.7589 43.357C43.9527 44.4761 41.8061 45.125 39.5 45.125C37.1939 45.125 35.0473 44.4761 33.2411 43.357C30.0119 41.3563 27.875 37.8569 27.875 33.875C27.875 27.9534 32.6032 23.0996 38.6047 22.6578Z" fill="#001622"/>
<path d="M24 23.5625C24 24.975 24.6456 26.2416 25.6668 27.101C27.1579 24.255 29.5593 21.9311 32.5002 20.4881C31.6122 19.4998 30.3034 18.875 28.8438 18.875C26.1686 18.875 24 20.9737 24 23.5625Z" fill="#001622"/>
<path d="M50.1562 18.875C48.6966 18.875 47.3878 19.4998 46.4998 20.4881C49.4407 21.9311 51.8421 24.255 53.3332 27.101C54.3544 26.2416 55 24.975 55 23.5625C55 20.9737 52.8314 18.875 50.1562 18.875Z" fill="#001622"/>
</svg>
