<svg width="110" height="110" viewBox="0 0 110 110" fill="none" xmlns="http://www.w3.org/2000/svg">
<path d="M55 110C85.3757 110 110 85.3757 110 55C110 24.6243 85.3757 0 55 0C24.6243 0 0 24.6243 0 55C0 85.3757 24.6243 110 55 110Z" fill="#003F62"/>
<path d="M63.5953 40.1587V46.0991C57.5338 48.0847 51.4639 48.0847 45.4023 46.0991V40.1587C51.2894 41.8443 57.3676 41.7552 63.5953 40.1587Z" fill="#F2F0F0"/>
<path d="M83.8477 85.0081L74.2142 89.8872C71.9691 89.1984 69.8571 89.158 67.9529 90.1952C64.8516 93.7044 60.8852 93.6557 54.4995 93.5665C48.1136 93.6557 44.1474 93.7043 41.046 90.1952C39.142 89.1578 37.03 89.1983 34.7848 89.8872L25.1513 85.0081C23.3588 84.1002 22.4886 82.0632 23.1015 80.187C27.9206 65.434 34.7618 53.3058 45.4029 46.0992V40.1588C45.5027 34.4532 43.5404 29.8095 40.1064 25.895C39.1834 24.8334 38.8924 23.3746 39.2333 22.0048C39.5742 20.6596 40.1812 19.5005 41.0959 18.609C42.526 17.2152 44.7711 17.0287 46.4922 18.0904C49.3193 19.8329 51.8886 21.8185 54.4995 22.0292C57.1103 21.8185 59.6797 19.8329 62.5067 18.0904C64.2279 17.0288 66.4729 17.2152 67.9031 18.6091C68.8178 19.5007 69.4248 20.6596 69.7656 22.005C70.1066 23.3746 69.8155 24.8334 68.8926 25.8951C65.4586 29.8095 63.4962 34.4534 63.5961 40.1589V46.0993C74.2371 53.3059 81.0785 65.4342 85.8975 80.1872C86.5104 82.0632 85.6401 84.1003 83.8477 85.0081Z" fill="#F96464"/>
<path opacity="0.4" d="M43.1002 55.419C42.4101 56.1565 41.7532 56.9184 41.1296 57.6802C40.5707 58.3786 39.5212 58.504 38.793 57.9475C38.078 57.3884 37.9532 56.3754 38.5187 55.6702C39.1839 54.8516 39.8989 54.0332 40.6307 53.2388C41.2461 52.5742 42.2937 52.5257 42.9756 53.1254C43.6574 53.7253 43.7156 54.7545 43.1002 55.419Z" fill="white"/>
<path opacity="0.08" d="M83.8521 85.0091L74.2152 89.8879C73.5749 89.6934 72.9514 89.5476 72.3277 89.4665L81.1415 85.0091C82.9291 84.1013 83.8023 82.059 83.187 80.1869C78.3726 65.4369 71.5294 53.3046 60.8864 46.0999V40.1594C60.7866 34.4539 62.749 29.8101 66.183 25.8956C67.106 24.834 67.397 23.3752 67.056 22.0055C66.7152 20.6602 66.1082 19.5012 65.1935 18.6097C64.7195 18.1477 64.1541 17.8154 63.5388 17.621C65.0522 17.1427 66.7483 17.4832 67.9042 18.6097C68.8188 19.5012 69.4259 20.6601 69.7667 22.0055C70.1077 23.3751 69.8165 24.8339 68.8937 25.8956C65.4597 29.81 63.4973 34.4539 63.5971 40.1594V46.0999C74.2402 53.3046 81.0833 65.4371 85.8977 80.1869C86.513 82.0592 85.6398 84.1015 83.8521 85.0091Z" fill="black"/>
<path d="M47.3324 64.164C43.8651 73.8893 41.3124 82.9094 41.0464 90.1954C39.1423 89.158 37.0303 89.1984 34.7852 89.8874C36.7475 79.8055 40.963 71.2553 47.3324 64.164ZM74.2145 89.8872C71.9695 89.1984 69.8574 89.158 67.9533 90.1952C67.6873 82.9093 65.1428 73.8891 61.6672 64.1638C68.0364 71.2553 72.2521 79.8055 74.2145 89.8872Z" fill="#EA4E4E"/>
<path d="M86.2821 80.0678C80.928 63.6772 73.6382 52.4961 63.9995 45.8944C64.4653 41.3605 62.1871 34.1434 69.2005 26.149C71.2164 23.8306 70.1706 20.2634 68.1886 18.3315C66.6313 16.8136 64.2061 16.5775 62.292 17.7585C53.8926 22.9282 54.9728 22.845 46.7083 17.7585C44.7946 16.5781 42.3694 16.8129 40.8117 18.3315C38.825 20.268 37.7767 23.8224 39.8009 26.15C46.8454 34.1803 44.5661 41.6622 45.0007 45.8944C35.3618 52.4956 28.0721 63.677 22.718 80.0678C22.044 82.131 22.9894 84.3551 24.9661 85.3569C27.3751 86.5768 32.1933 89.0168 34.6024 90.2367C34.6889 90.2799 34.817 90.2898 34.9062 90.262C36.9116 89.6465 38.9588 89.5329 40.796 90.5129C44.0185 94.1048 48.1982 94.047 54.494 93.9592C60.2676 94.0398 64.8699 94.2293 68.2039 90.5127C70.0559 89.5251 72.0882 89.6462 74.0936 90.262C74.1811 90.2892 74.3093 90.2805 74.3972 90.2367C89.2704 82.705 81.9038 86.4355 84.0337 85.3569C86.0105 84.3551 86.9561 82.131 86.2821 80.0678ZM45.8063 40.6788C51.2815 42.1468 57.1255 42.1423 63.1936 40.665V45.8153C57.4232 47.6469 51.5766 47.6469 45.8063 45.8153V40.6788ZM40.4141 25.6411C38.6952 23.6635 39.681 20.5438 41.3812 18.8868C42.6698 17.6304 44.6835 17.4391 46.2777 18.4219C54.8486 23.7069 53.9552 23.828 62.7224 18.4219C64.3165 17.439 66.3303 17.6307 67.6188 18.8868C69.3278 20.5525 70.3022 23.6666 68.587 25.6396C64.9308 29.8072 63.1683 34.4623 63.1947 39.8514C57.1115 41.3629 51.2652 41.3652 45.8052 39.8592C45.8322 34.4632 44.0696 29.8077 40.4141 25.6411ZM35.3067 89.3324C37.1334 80.4436 40.8099 72.6177 46.2505 66.0305C42.7708 76.0806 40.985 83.6211 40.671 89.5732C38.9659 88.8355 37.1041 88.8751 35.3067 89.3324ZM68.329 89.5732C68.0143 83.5961 66.2287 76.0552 62.7523 66.0335C68.1909 72.6198 71.8669 80.4454 73.6933 89.3323C71.9084 88.8786 70.0288 88.8378 68.329 89.5732ZM83.6624 84.6597L74.5018 89.2994C72.506 79.4906 68.2954 70.9472 61.9703 63.9053C61.6776 63.5814 61.1427 63.8891 61.2869 64.2935C65.2942 75.5058 67.2826 83.6958 67.5426 90.0494C64.573 93.3088 60.7665 93.2609 54.494 93.174C48.2345 93.2615 44.4268 93.3092 41.4573 90.0494C41.7159 83.7262 43.7043 75.5364 47.713 64.2932C47.8579 63.8872 47.319 63.582 47.0296 63.9054C40.7047 70.9472 36.4939 79.4907 34.4981 89.2995L25.3375 84.6598C23.7098 83.8354 22.9312 82.0045 23.4859 80.3064C28.7863 64.0799 35.9809 53.0307 45.4743 46.5325C51.3943 48.4289 57.4385 48.4824 63.5258 46.5325C73.0195 53.031 80.2141 64.0799 85.514 80.3063C86.0689 82.0044 85.2903 83.8352 83.6624 84.6597Z" fill="black"/>
</svg>
