<svg width="80" height="65" viewBox="0 0 80 65" fill="none" xmlns="http://www.w3.org/2000/svg">
<rect width="80" height="65" rx="15" fill="#DAEAF3"/>
<path d="M58 33.5C58 33.5 51.4375 22.1562 40.5 22.1562C29.5625 22.1562 23 33.5 23 33.5C23 33.5 29.5625 44.8438 40.5 44.8438C51.4375 44.8438 58 33.5 58 33.5ZM25.5659 33.5C26.6236 31.9843 27.8402 30.5727 29.1972 29.2863C32.0125 26.6277 35.8625 24.2188 40.5 24.2188C45.1375 24.2188 48.9853 26.6277 51.805 29.2863C53.162 30.5727 54.3786 31.9843 55.4362 33.5C55.3094 33.6794 55.1694 33.8774 55.0097 34.094C54.2769 35.084 53.1941 36.404 51.805 37.7137C48.9853 40.3722 45.1353 42.7812 40.5 42.7812C35.8625 42.7812 32.0147 40.3722 29.195 37.7137C27.838 36.4273 26.6236 35.0157 25.5659 33.5Z" fill="#001622"/>
<path d="M40.5 28.3438C39.0496 28.3438 37.6586 28.887 36.633 29.854C35.6074 30.821 35.0312 32.1325 35.0312 33.5C35.0312 34.8675 35.6074 36.179 36.633 37.146C37.6586 38.113 39.0496 38.6562 40.5 38.6562C41.9504 38.6562 43.3414 38.113 44.367 37.146C45.3926 36.179 45.9688 34.8675 45.9688 33.5C45.9688 32.1325 45.3926 30.821 44.367 29.854C43.3414 28.887 41.9504 28.3438 40.5 28.3438ZM32.8438 33.5C32.8438 31.5855 33.6504 29.7494 35.0862 28.3956C36.522 27.0418 38.4694 26.2813 40.5 26.2812C42.5306 26.2812 44.478 27.0418 45.9138 28.3956C47.3496 29.7494 48.1562 31.5855 48.1562 33.5C48.1562 35.4145 47.3496 37.2506 45.9138 38.6044C44.478 39.9582 42.5306 40.7188 40.5 40.7188C38.4694 40.7188 36.522 39.9582 35.0862 38.6044C33.6504 37.2506 32.8438 35.4145 32.8438 33.5Z" fill="#001622"/>
</svg>
