<svg width="31" height="25" viewBox="0 0 31 25" fill="none" xmlns="http://www.w3.org/2000/svg">
<g clip-path="url(#clip0_2083_2466)">
<path d="M17.12 0.0717624C15.3275 -0.301675 13.6625 0.828012 13.5425 2.29051C13.4075 3.9327 13.1112 5.44051 12.74 6.33739C12.5056 6.89989 11.8419 7.9202 10.79 8.89833C9.74562 9.87176 8.38625 10.739 6.79437 11.1014C5.53438 11.3874 4.25 12.2968 4.25 13.6249V19.8764C4.25 21.1968 5.52875 22.1639 6.965 22.2905C8.97125 22.4686 9.8975 22.9389 10.8425 23.4202L10.9325 23.4671C11.4425 23.7249 12.0162 24.0108 12.7512 24.2233C13.4956 24.4358 14.3656 24.5624 15.5 24.5624H22.0625C23.8194 24.5624 25.0606 23.8171 25.6887 22.8999C25.9923 22.4671 26.1564 21.9762 26.165 21.4749C26.165 21.2374 26.1219 20.9874 26.0206 20.7499C26.3975 20.3389 26.7331 19.8468 26.9356 19.3421C27.1419 18.8264 27.2581 18.1514 26.9431 17.5468C27.0725 17.3436 27.1681 17.1264 27.2412 16.9171C27.3856 16.4952 27.4531 16.0296 27.4531 15.578C27.4531 15.128 27.3856 14.6639 27.2412 14.2405C27.1757 14.0458 27.0891 13.8565 26.9825 13.6749C27.3108 13.2856 27.522 12.8363 27.5984 12.3648C27.6748 11.8933 27.614 11.4134 27.4212 10.9655C27.035 10.0405 26.1425 9.24676 25.1712 8.97801C23.5831 8.53739 21.7906 8.54676 20.4537 8.64832C20.1762 8.66914 19.8993 8.69518 19.6231 8.72645C20.2736 6.40518 20.2337 3.98663 19.5069 1.68114C19.3804 1.31175 19.1379 0.977208 18.8043 0.712121C18.4707 0.447035 18.0582 0.261024 17.6094 0.173325L17.12 0.0717624ZM22.0625 23.0014H15.5C14.5437 23.0014 13.8819 22.8936 13.3625 22.7452C12.8356 22.5936 12.4137 22.3889 11.9075 22.1311L11.8325 22.0936C10.7919 21.5639 9.58625 20.9515 7.16375 20.7374C6.53937 20.6811 6.125 20.2843 6.125 19.878V13.6249C6.125 13.228 6.54875 12.7764 7.2875 12.6093C9.34062 12.1405 10.9944 11.053 12.1887 9.94051C13.3794 8.83114 14.1837 7.63583 14.51 6.84989C14.9656 5.75614 15.2731 4.08739 15.4137 2.39676C15.4606 1.83114 16.0887 1.46864 16.6644 1.58739L17.1556 1.69051C17.4556 1.75301 17.6394 1.91395 17.6956 2.08895C18.4613 4.52023 18.3669 7.08418 17.4237 9.47176C17.3704 9.60455 17.3608 9.74686 17.396 9.8838C17.4313 10.0207 17.5101 10.1472 17.6241 10.2501C17.7381 10.353 17.8833 10.4284 18.0443 10.4685C18.2053 10.5086 18.3763 10.5119 18.5394 10.478L18.545 10.4764L18.5712 10.4718L18.68 10.4499C19.3212 10.3364 19.9698 10.2545 20.6225 10.2046C21.8656 10.1108 23.3544 10.1202 24.5787 10.4608C24.9069 10.5515 25.4225 10.9296 25.6475 11.4764C25.8481 11.9577 25.8106 12.5233 25.1487 13.0733L24.4869 13.6249L25.1487 14.178C25.2294 14.2452 25.3456 14.3983 25.4375 14.6702C25.5275 14.9311 25.5781 15.2483 25.5781 15.578C25.5781 15.9093 25.5275 16.2249 25.4375 16.4874C25.3437 16.7593 25.2294 16.9124 25.1487 16.9796L24.4869 17.5311L25.1487 18.0843C25.2369 18.1577 25.3531 18.3608 25.1581 18.8468C24.9549 19.318 24.6319 19.747 24.2112 20.1046L23.5494 20.6561L24.2112 21.2093C24.2225 21.2171 24.2881 21.2874 24.2881 21.4749C24.2798 21.7041 24.2017 21.9277 24.0612 22.1249C23.7519 22.5749 23.1181 22.9999 22.0625 22.9999V23.0014Z" fill="#003F62"/>
</g>
<defs>
<clipPath id="clip0_2083_2466">
<rect width="30" height="25" fill="white" transform="translate(0.5)"/>
</clipPath>
</defs>
</svg>
