<svg width="31" height="25" viewBox="0 0 31 25" fill="none" xmlns="http://www.w3.org/2000/svg">
<g clip-path="url(#clip0_2083_3675)">
<path d="M17.12 0.0718845C15.3275 -0.301553 13.6625 0.828134 13.5425 2.29063C13.4075 3.93282 13.1112 5.44064 12.74 6.33751C12.5056 6.90001 11.8419 7.92032 10.79 8.89845C9.74562 9.87189 8.38625 10.7391 6.79437 11.1016C5.53438 11.3875 4.25 12.2969 4.25 13.625V19.8766C4.25 21.1969 5.52875 22.1641 6.965 22.2906C8.97125 22.4688 9.8975 22.9391 10.8425 23.4203L10.9325 23.4672C11.4425 23.725 12.0162 24.0109 12.7512 24.2234C13.4956 24.4359 14.3656 24.5625 15.5 24.5625H22.0625C23.8194 24.5625 25.0606 23.8172 25.6887 22.9C25.9923 22.4672 26.1564 21.9763 26.165 21.475C26.165 21.2375 26.1219 20.9875 26.0206 20.75C26.3975 20.3391 26.7331 19.8469 26.9356 19.3422C27.1419 18.8266 27.2581 18.1516 26.9431 17.5469C27.0725 17.3438 27.1681 17.1266 27.2412 16.9172C27.3856 16.4953 27.4531 16.0297 27.4531 15.5781C27.4531 15.1281 27.3856 14.6641 27.2412 14.2406C27.1757 14.046 27.0891 13.8567 26.9825 13.675C27.3108 13.2857 27.522 12.8364 27.5984 12.3649C27.6748 11.8934 27.614 11.4135 27.4212 10.9656C27.035 10.0406 26.1425 9.24688 25.1712 8.97813C23.5831 8.53751 21.7906 8.54688 20.4537 8.64845C20.1762 8.66926 19.8993 8.69531 19.6231 8.72657C20.2736 6.4053 20.2337 3.98675 19.5069 1.68126C19.3804 1.31187 19.1379 0.97733 18.8043 0.712243C18.4707 0.447157 18.0582 0.261146 17.6094 0.173447L17.12 0.0718845ZM22.0625 23.0016H15.5C14.5437 23.0016 13.8819 22.8938 13.3625 22.7453C12.8356 22.5938 12.4137 22.3891 11.9075 22.1313L11.8325 22.0938C10.7919 21.5641 9.58625 20.9516 7.16375 20.7375C6.53937 20.6813 6.125 20.2844 6.125 19.8781V13.625C6.125 13.2281 6.54875 12.7766 7.2875 12.6094C9.34062 12.1406 10.9944 11.0531 12.1887 9.94063C13.3794 8.83126 14.1837 7.63595 14.51 6.85001C14.9656 5.75626 15.2731 4.08751 15.4137 2.39688C15.4606 1.83126 16.0887 1.46876 16.6644 1.58751L17.1556 1.69063C17.4556 1.75313 17.6394 1.91407 17.6956 2.08907C18.4613 4.52036 18.3669 7.0843 17.4237 9.47188C17.3704 9.60468 17.3608 9.74699 17.396 9.88392C17.4313 10.0209 17.5101 10.1474 17.6241 10.2502C17.7381 10.3531 17.8833 10.4285 18.0443 10.4686C18.2053 10.5087 18.3763 10.512 18.5394 10.4781L18.545 10.4766L18.5712 10.4719L18.68 10.45C19.3212 10.3365 19.9698 10.2546 20.6225 10.2047C21.8656 10.1109 23.3544 10.1203 24.5787 10.4609C24.9069 10.5516 25.4225 10.9297 25.6475 11.4766C25.8481 11.9578 25.8106 12.5234 25.1487 13.0734L24.4869 13.625L25.1487 14.1781C25.2294 14.2453 25.3456 14.3984 25.4375 14.6703C25.5275 14.9313 25.5781 15.2484 25.5781 15.5781C25.5781 15.9094 25.5275 16.225 25.4375 16.4875C25.3437 16.7594 25.2294 16.9125 25.1487 16.9797L24.4869 17.5313L25.1487 18.0844C25.2369 18.1578 25.3531 18.3609 25.1581 18.8469C24.9549 19.3181 24.6319 19.7472 24.2112 20.1047L23.5494 20.6563L24.2112 21.2094C24.2225 21.2172 24.2881 21.2875 24.2881 21.475C24.2798 21.7042 24.2017 21.9279 24.0612 22.125C23.7519 22.575 23.1181 23 22.0625 23V23.0016Z" fill="#003F62"/>
</g>
<defs>
<clipPath id="clip0_2083_3675">
<rect width="30" height="25" fill="white" transform="translate(0.5)"/>
</clipPath>
</defs>
</svg>
