<svg width="27" height="25" viewBox="0 0 27 25" fill="none" xmlns="http://www.w3.org/2000/svg">
<g clip-path="url(#clip0_2083_2412)">
<path fill-rule="evenodd" clip-rule="evenodd" d="M5.23125 17.4999C5.30984 17.4029 5.41175 17.3241 5.52891 17.2699C5.64607 17.2156 5.77526 17.1874 5.90625 17.1874H10.125C10.3488 17.1874 10.5634 17.2697 10.7216 17.4162C10.8799 17.5627 10.9687 17.7615 10.9687 17.9687C10.9687 18.1759 10.8799 18.3746 10.7216 18.5211C10.5634 18.6676 10.3488 18.7499 10.125 18.7499H6.32812L2.53125 23.4374H24.4687L20.6719 18.7499H16.875C16.6512 18.7499 16.4366 18.6676 16.2784 18.5211C16.1201 18.3746 16.0312 18.1759 16.0312 17.9687C16.0312 17.7615 16.1201 17.5627 16.2784 17.4162C16.4366 17.2697 16.6512 17.1874 16.875 17.1874H21.0937C21.2247 17.1874 21.3539 17.2156 21.4711 17.2699C21.5882 17.3241 21.6902 17.4029 21.7687 17.4999L26.8312 23.7499C26.9253 23.866 26.9825 24.004 26.9966 24.1485C27.0107 24.293 26.981 24.4383 26.9109 24.568C26.8408 24.6978 26.7331 24.807 26.5998 24.8832C26.4665 24.9595 26.3129 24.9999 26.1562 24.9999H0.84375C0.687056 24.9999 0.533457 24.9595 0.400165 24.8832C0.266872 24.807 0.159153 24.6978 0.0890775 24.568C0.0190016 24.4383 -0.0106623 24.293 0.00340973 24.1485C0.0174818 24.004 0.0747337 23.866 0.16875 23.7499L5.23125 17.4999Z" fill="#E6ECEF"/>
<path fill-rule="evenodd" clip-rule="evenodd" d="M6.75 6.24991C6.75012 5.04714 7.12506 3.86994 7.82982 2.85958C8.53458 1.84922 9.53923 1.04861 10.7232 0.553826C11.9072 0.0590365 13.2202 -0.108916 14.5048 0.0701227C15.7893 0.249161 16.9907 0.767584 17.9649 1.56318C18.9391 2.35879 19.6447 3.39777 19.997 4.55546C20.3493 5.71316 20.3334 6.94038 19.9511 8.08989C19.5688 9.23939 18.8364 10.2623 17.8417 11.036C16.8471 11.8096 15.6326 12.3011 14.3437 12.4515V21.0937C14.3437 21.3009 14.2549 21.4996 14.0966 21.6461C13.9384 21.7926 13.7238 21.8749 13.5 21.8749C13.2762 21.8749 13.0616 21.7926 12.9034 21.6461C12.7451 21.4996 12.6562 21.3009 12.6562 21.0937V12.453C11.0244 12.2627 9.52372 11.5272 8.43617 10.3847C7.34863 9.24215 6.74902 7.77285 6.75 6.24991Z" fill="#E6ECEF"/>
</g>
<defs>
<clipPath id="clip0_2083_2412">
<rect width="27" height="25" fill="white"/>
</clipPath>
</defs>
</svg>
