<svg width="23" height="20" viewBox="0 0 23 20" fill="none" xmlns="http://www.w3.org/2000/svg">
<path d="M16.1562 12.7834C17.2435 11.5049 17.8857 9.92661 17.8857 8.21875C17.8857 3.9558 13.8843 0.5 8.94824 0.5C4.0122 0.5 0.0107422 3.9558 0.0107422 8.21875C0.0107422 12.4817 4.0122 15.9375 8.94824 15.9375C10.9263 15.9375 12.7543 15.3825 14.2348 14.4431L14.2336 14.4438C14.2741 14.4913 14.3193 14.5368 14.3691 14.5798L19.6635 19.1522C20.2004 19.6159 21.071 19.6159 21.608 19.1522C22.145 18.6884 22.145 17.9366 21.608 17.4728L16.3136 12.9004C16.2638 12.8574 16.2112 12.8184 16.1562 12.7834ZM16.5107 8.21875C16.5107 11.8259 13.1249 14.75 8.94824 14.75C4.77159 14.75 1.38574 11.8259 1.38574 8.21875C1.38574 4.61164 4.77159 1.6875 8.94824 1.6875C13.1249 1.6875 16.5107 4.61164 16.5107 8.21875Z" fill="#EDA415"/>
</svg>
