<svg width="31" height="35" viewBox="0 0 31 35" fill="none" xmlns="http://www.w3.org/2000/svg">
<path d="M27.1109 18.8389C27.7434 10.4488 22.4418 3.04745 15.2695 2.30751C8.09716 1.56757 1.77005 7.76924 1.13751 16.1593C0.504966 24.5494 5.80651 31.9508 12.9789 32.6907C20.1512 33.4307 26.4783 27.229 27.1109 18.8389Z" fill="#407BFF"/>
<path d="M19.2532 27.8542L18.3496 31.6363L22.0868 33.966L22.5416 29.1197L19.2532 27.8542Z" fill="#407BFF"/>
<path d="M30.0222 16.9609C29.982 16.9555 29.945 16.9324 29.9188 16.8964C29.8926 16.8604 29.879 16.8141 29.8808 16.7668C29.9707 14.3137 29.5434 11.8724 28.6366 9.65798C27.7298 7.4436 26.3712 5.52413 24.6807 4.06874C24.6641 4.05512 24.65 4.03778 24.6391 4.01772C24.6282 3.99767 24.6209 3.9753 24.6174 3.9519C24.614 3.92851 24.6146 3.90454 24.6191 3.8814C24.6236 3.85826 24.632 3.8364 24.6438 3.81708C24.6555 3.79763 24.6703 3.78109 24.6874 3.76838C24.7046 3.75568 24.7237 3.74707 24.7437 3.74306C24.7637 3.73905 24.7842 3.73972 24.804 3.74502C24.8238 3.75031 24.8425 3.76014 24.859 3.77394C26.5915 5.26571 27.9837 7.23304 28.913 9.50257C29.8424 11.7721 30.2802 14.2742 30.1881 16.7883C30.1874 16.8126 30.1824 16.8364 30.1736 16.8584C30.1647 16.8803 30.1522 16.9 30.1367 16.9161C30.1211 16.9322 30.103 16.9445 30.0833 16.9522C30.0637 16.9599 30.0429 16.9629 30.0222 16.9609Z" fill="#407BFF"/>
<path d="M29.4571 21.4405H29.4018C29.3826 21.4318 29.3652 21.4187 29.3504 21.402C29.3357 21.3852 29.3239 21.3652 29.3159 21.3431C29.3079 21.321 29.3037 21.2972 29.3037 21.2732C29.3037 21.2491 29.3078 21.2254 29.3157 21.2032C29.5577 20.5201 29.6749 19.7853 29.6599 19.0461C29.6599 18.9984 29.6761 18.9527 29.7049 18.919C29.7338 18.8853 29.7729 18.8664 29.8136 18.8664C29.8335 18.8654 29.8533 18.8691 29.872 18.8774C29.8906 18.8856 29.9076 18.8982 29.9219 18.9143C29.9363 18.9304 29.9477 18.9498 29.9555 18.9712C29.9633 18.9926 29.9673 19.0157 29.9673 19.0389C29.9818 19.8228 29.8562 20.6016 29.5985 21.3254C29.5874 21.3589 29.5681 21.3878 29.5429 21.4083C29.5177 21.4288 29.4878 21.44 29.4571 21.4405Z" fill="#407BFF"/>
<path d="M13.8938 23.9356L7.3291 18.8017L8.85963 16.1197L13.2607 19.5639L18.7373 11.0865L20.9378 13.0279L13.8938 23.9356Z" fill="white"/>
</svg>
