<svg width="95" height="60" viewBox="0 0 95 60" fill="none" xmlns="http://www.w3.org/2000/svg">
<path d="M89.4753 0.389916H68.8901L67.249 4.1792H27.1727L24.7878 0.389916H5.84375C5.1249 0.384232 4.41217 0.544711 3.74649 0.862141C3.08081 1.17957 2.47528 1.6477 1.96469 2.23964C1.45409 2.83158 1.04848 3.53568 0.771153 4.3115C0.493823 5.08732 0.350235 5.91959 0.348633 6.7605V59.0266H94.9581V6.7605C94.9565 5.9208 94.8133 5.08972 94.5368 4.31484C94.2602 3.53996 93.8557 2.83651 93.3464 2.24476C92.8371 1.653 92.2331 1.18457 91.5688 0.866293C90.9045 0.548013 90.1931 0.386132 89.4753 0.389916Z" fill="#407BFF"/>
</svg>
