<svg width="4" height="4" viewBox="0 0 4 4" fill="none" xmlns="http://www.w3.org/2000/svg">
<path d="M3.60986 2.03044C3.61474 2.41273 3.52229 2.78809 3.34427 3.10874C3.16625 3.42939 2.91072 3.68085 2.61017 3.83112C2.30963 3.98139 1.97767 4.02368 1.65652 3.9526C1.33537 3.88153 1.03955 3.70031 0.806704 3.43199C0.573858 3.16368 0.41451 2.8204 0.34893 2.44584C0.28335 2.07127 0.314504 1.68236 0.43843 1.32857C0.562355 0.974776 0.773447 0.672105 1.04485 0.459065C1.31626 0.246025 1.63571 0.132245 1.96255 0.132202C2.39522 0.132146 2.81053 0.331215 3.11877 0.6864C3.427 1.04158 3.6034 1.52437 3.60986 2.03044Z" fill="white"/>
</svg>
