<svg width="21" height="12" viewBox="0 0 21 12" fill="none" xmlns="http://www.w3.org/2000/svg">
<path d="M20.8632 8.16662V4.36296C20.8601 4.20963 20.8269 4.05919 20.7661 3.92328C20.7054 3.78738 20.6187 3.66965 20.5128 3.57922L20.439 3.52889L18.134 2.09083C18.1168 2.07676 18.1039 2.0566 18.0972 2.03331C18.0913 2.01539 18.0886 1.99628 18.0891 1.9771C18.0897 1.95792 18.0935 1.93907 18.1004 1.92165C18.1072 1.90423 18.117 1.88859 18.1291 1.87566C18.1413 1.86273 18.1555 1.85277 18.1709 1.84636L18.4475 1.73132C18.4593 1.72549 18.4699 1.71666 18.4784 1.70546C18.4869 1.69427 18.4931 1.68099 18.4967 1.6666C18.4969 1.646 18.4909 1.62599 18.4796 1.61016C18.4683 1.59434 18.4526 1.58375 18.4352 1.58032C17.3411 1.40056 13.0815 0.75344 10.8441 1.06981C10.3689 1.12385 9.90071 1.24208 9.4488 1.42213C8.21356 1.96551 7.06312 2.74285 6.04355 3.72302L5.70549 4.04659C4.17764 4.03504 2.66507 4.40264 1.26759 5.12513C1.14615 5.18907 1.03716 5.28137 0.94732 5.39636C0.857476 5.51135 0.788667 5.64661 0.745121 5.79383L0.486963 6.6998C0.450327 6.81481 0.431593 6.93657 0.431645 7.05931V8.97193C0.431088 9.17201 0.485854 9.36694 0.587769 9.52762C0.689683 9.68831 0.833282 9.80614 0.997137 9.86353L1.12622 9.91385C1.21012 9.94228 1.29702 9.9568 1.38438 9.95699H2.26335V9.87071H2.64444C2.7355 10.2203 2.89794 10.5386 3.11773 10.7983C3.34917 11.0773 3.64078 11.278 3.96172 11.3791C4.28265 11.4803 4.62099 11.478 4.94093 11.3727C5.26087 11.2673 5.55052 11.0628 5.77924 10.7807C6.00796 10.4985 6.16724 10.1494 6.24024 9.77005H6.62134V9.87071L15.3803 9.62625H15.5955C15.5955 9.62625 15.5955 9.56153 15.5955 9.53277H15.9643C15.9757 10.1049 16.1809 10.6482 16.5348 11.0433C16.8887 11.4384 17.3622 11.6529 17.8513 11.6395C18.3404 11.6262 18.8048 11.3861 19.1426 10.9721C19.4803 10.5582 19.6637 10.0042 19.6523 9.43211H20.0211H20.0579L20.2301 9.33863L20.3591 9.27392C20.5074 9.19624 20.6333 9.07007 20.7216 8.9106C20.81 8.75112 20.857 8.56516 20.857 8.37513V8.27447L20.8632 8.16662Z" fill="white"/>
</svg>
