<svg width="11" height="15" viewBox="0 0 11 15" fill="none" xmlns="http://www.w3.org/2000/svg">
<path d="M2.0285 2.47933C2.96851 1.46183 4.20883 0.909679 5.48928 0.938712C6.76974 0.967744 7.99085 1.57571 8.89644 2.63506C9.80203 3.69441 10.3217 5.12283 10.3466 6.6207C10.3714 8.11856 9.89937 9.56947 9.02956 10.6691L6.23282 13.9406C6.04611 14.1589 5.79297 14.2814 5.52903 14.2814C5.26509 14.2814 5.01195 14.1589 4.82524 13.9406L2.0285 10.6691C1.10102 9.58248 0.580078 8.10972 0.580078 6.5742C0.580078 5.03868 1.10102 3.56592 2.0285 2.47933ZM5.5321 9.26695C5.98755 9.26694 6.43274 9.10866 6.81117 8.81221C7.1896 8.51575 7.48423 8.09449 7.65767 7.60185C7.83111 7.10922 7.87555 6.5674 7.78534 6.04518C7.69514 5.52295 7.47435 5.04384 7.151 4.66863C6.82765 4.29341 6.41632 4.03902 5.96917 3.9377C5.52203 3.83639 5.05924 3.89273 4.63952 4.09958C4.21979 4.30643 3.86205 4.65446 3.61168 5.09952C3.36131 5.54458 3.22959 6.0666 3.23325 6.59937C3.23325 6.95217 3.29275 7.30151 3.40836 7.62737C3.52396 7.95324 3.69339 8.24922 3.90694 8.49836C4.12049 8.7475 4.37396 8.9449 4.65284 9.07925C4.93171 9.21361 5.2305 9.2823 5.5321 9.28135V9.26695Z" fill="#263238"/>
</svg>
