<svg width="3" height="2" viewBox="0 0 3 2" fill="none" xmlns="http://www.w3.org/2000/svg">
<path d="M2.04379 1.03051C2.04379 1.22107 1.99549 1.40735 1.90498 1.5658C1.81448 1.72425 1.68584 1.84774 1.53533 1.92067C1.38483 1.99359 1.21922 2.01267 1.05945 1.9755C0.899676 1.93832 0.752909 1.84656 0.637719 1.71181C0.522529 1.57706 0.444093 1.40538 0.412312 1.21848C0.380531 1.03158 0.396839 0.837854 0.459179 0.661798C0.521519 0.485742 0.627087 0.335265 0.762536 0.229395C0.897985 0.123524 1.05723 0.0670166 1.22013 0.0670166C1.43858 0.0670166 1.64808 0.168524 1.80254 0.349214C1.95701 0.529905 2.04379 0.774976 2.04379 1.03051Z" fill="white"/>
</svg>
